<svg width="73" height="48" viewBox="0 0 73 48" fill="none" xmlns="http://www.w3.org/2000/svg">
<g clip-path="url(#clip0_382_13994)">
<path d="M6.86232 45.339C4.45731 45.339 2.50788 43.354 2.50788 40.9048C2.50788 38.456 4.45731 36.4707 6.86261 36.4707C9.26762 36.4707 11.2168 38.456 11.2168 40.9048C11.2168 43.354 9.26733 45.339 6.86232 45.339ZM11.2307 45.9014C11.2307 46.3075 11.9292 47.4482 12.785 47.4482H13.3393C13.5542 47.4482 13.7298 47.2729 13.7298 47.0591V34.9242H13.7278C13.7224 34.825 13.6792 34.7316 13.607 34.6632C13.5347 34.5948 13.4389 34.5564 13.3393 34.5561H11.6219C11.4141 34.5561 11.2444 34.72 11.2327 34.9242H11.2307V35.9103C10.1788 34.6191 8.51954 34.0832 6.85577 34.0832C3.07406 34.0832 0.00878906 37.1373 0.00878906 40.9051C0.00878906 44.673 3.07406 47.7271 6.85577 47.7271C8.51954 47.7271 10.3327 47.0841 11.2307 45.9V45.902V45.9014ZM17.8334 44.1637C18.9797 44.9547 20.2313 45.339 21.4338 45.339C22.5798 45.339 23.7638 44.7471 23.7638 43.7173C23.7638 42.3426 21.1829 42.1284 19.5616 41.5794C17.9394 41.0304 16.5425 39.8951 16.5425 38.0569C16.5425 35.2445 19.0581 34.0829 21.4061 34.0829C22.8937 34.0829 24.4284 34.5714 25.4236 35.2718C25.7666 35.5303 25.5576 35.8276 25.5576 35.8276L24.6077 37.179C24.501 37.3313 24.2798 37.4528 24.0463 37.298C23.4063 36.8765 22.6936 36.4704 21.4058 36.4704C19.8119 36.4704 19.1109 37.1296 19.1109 37.9465C19.1109 38.9263 20.2321 39.2342 21.5455 39.5682C23.8348 40.1826 26.3322 40.9219 26.3322 43.7175C26.3322 46.1956 24.0053 47.7271 21.4338 47.7271C19.4852 47.7271 17.826 47.1735 16.4345 46.1564C16.1448 45.8673 16.3472 45.5989 16.3472 45.5989L17.2923 44.2543C17.4847 44.0027 17.7271 44.0907 17.8334 44.1637ZM39.2122 45.9017C39.2122 46.3075 39.9104 47.4482 40.7659 47.4482H41.3204C41.5354 47.4482 41.7113 47.2729 41.7113 47.0591V34.9242H41.709C41.7035 34.825 41.6602 34.7318 41.588 34.6633C41.5158 34.5949 41.4201 34.5566 41.3204 34.5561H39.6031C39.3949 34.5561 39.2256 34.72 39.2142 34.9242H39.2122V35.9103C38.1599 34.6191 36.5007 34.0832 34.8372 34.0832C31.0555 34.0832 27.9897 37.1373 27.9897 40.9048C27.9897 44.6724 31.0555 47.7268 34.8372 47.7268C36.5007 47.7268 38.3139 47.0838 39.2119 45.8997V45.9017H39.2122ZM34.8438 45.3393C32.4385 45.3393 30.4891 43.354 30.4891 40.9048C30.4891 38.456 32.4385 36.4707 34.8438 36.4707C37.2485 36.4707 39.1982 38.456 39.1982 40.9048C39.1982 43.354 37.2485 45.339 34.8438 45.339V45.3393ZM57.0987 46.3186L57.0981 40.0397C57.0981 36.5002 54.8567 34.1121 51.2823 34.1121C49.5763 34.1121 48.1805 35.0951 47.6865 35.9395V35.9276L47.6836 35.9373C47.6825 35.0829 46.9869 34.5853 46.1293 34.5853H45.5779C45.3627 34.5853 45.1871 34.7608 45.1871 34.975V47.1102H45.1894C45.2005 47.3147 45.3704 47.4786 45.5779 47.4786H47.2953C47.3215 47.4786 47.3475 47.4755 47.3723 47.4709C47.3837 47.4684 47.3942 47.4638 47.4054 47.4607C47.4185 47.457 47.4316 47.4539 47.4436 47.4488C47.4592 47.4425 47.4729 47.434 47.4872 47.426C47.494 47.4218 47.5014 47.4189 47.5083 47.4147C47.5251 47.4031 47.5411 47.3904 47.5562 47.3766C47.5587 47.3741 47.5619 47.3724 47.5642 47.3701C47.636 47.3019 47.6789 47.2089 47.6839 47.1102H47.6865V39.9423C47.6865 38.0413 49.2334 36.4999 51.1417 36.4999C53.0498 36.4999 54.597 38.0413 54.597 39.9423L54.5982 45.9341L54.5987 45.9318C54.5987 45.9372 54.5999 45.9429 54.5999 45.9483V47.1102H54.6021C54.6135 47.3147 54.7829 47.4786 54.9907 47.4786H56.7081C56.7346 47.4786 56.76 47.4755 56.7851 47.4709C56.7953 47.4686 56.8047 47.4644 56.8144 47.4621C56.8287 47.4578 56.8429 47.4542 56.8566 47.4488C56.8706 47.4431 56.8834 47.4348 56.8965 47.4275C56.9048 47.4232 56.9134 47.4198 56.9211 47.4147C56.937 47.4039 56.9516 47.3917 56.9658 47.3792C56.9695 47.3763 56.9735 47.3735 56.9772 47.3698C56.9932 47.3545 57.0074 47.3374 57.0208 47.3198C57.066 47.2592 57.0924 47.1867 57.0967 47.1113L57.097 47.1102H57.0989L57.0987 46.3186ZM70.4924 45.9017C70.4924 46.3075 71.19 47.4482 72.0462 47.4482H72.6007C72.8153 47.4482 72.9915 47.2729 72.9915 47.0591V34.9242H72.9895C72.9839 34.825 72.9406 34.7317 72.8683 34.6633C72.7961 34.5949 72.7003 34.5566 72.6007 34.5561H70.8836C70.7838 34.5564 70.688 34.5947 70.6157 34.6631C70.5434 34.7315 70.5001 34.8249 70.4947 34.9242H70.4924V35.9103C69.4396 34.6191 67.7809 34.0832 66.1169 34.0832C62.3357 34.0832 59.2699 37.1373 59.2699 40.9048C59.2699 44.6724 62.3357 47.7268 66.1169 47.7268C67.7809 47.7268 69.5938 47.0838 70.4916 45.8997L70.4924 45.9017ZM66.1243 45.3393C63.719 45.3393 61.7696 43.354 61.7696 40.9048C61.7696 38.456 63.719 36.4707 66.1243 36.4707C68.5284 36.4707 70.4779 38.456 70.4779 40.9048C70.4779 43.354 68.5284 45.339 66.1243 45.339V45.3393Z" fill="#283343"/>
<path d="M44.4061 13.4508C41.0916 13.4508 38.4052 16.1271 38.4052 19.4286C38.4052 22.7304 41.0916 25.4073 44.4061 25.4073C47.7199 25.4073 50.4063 22.7304 50.4063 19.4286C50.4063 16.1271 47.7199 13.4508 44.4061 13.4508ZM28.816 13.4511C25.5021 13.4514 22.8154 16.1271 22.8154 19.4289C22.8154 22.7304 25.5021 25.4071 28.816 25.4071C32.1301 25.4071 34.8168 22.7304 34.8168 19.4289C34.8168 16.1271 32.1304 13.4511 28.816 13.4511ZM42.6114 5.97813C42.6114 9.27962 39.925 11.9568 36.6112 11.9568C33.2967 11.9568 30.6103 9.27962 30.6103 5.97813C30.6103 2.67664 33.2967 0 36.6112 0C39.925 0 42.6111 2.67664 42.6111 5.97813H42.6114Z" fill="url(#paint0_radial_382_13994)"/>
</g>
<defs>
<radialGradient id="paint0_radial_382_13994" cx="0" cy="0" r="1" gradientUnits="userSpaceOnUse" gradientTransform="translate(36.6109 1388.56) scale(1828.26 1683.57)">
<stop stop-color="#FFB900"/>
<stop offset="0.6" stop-color="#F95D8F"/>
<stop offset="0.9991" stop-color="#F95353"/>
</radialGradient>
<clipPath id="clip0_382_13994">
<rect width="73" height="48" fill="white"/>
</clipPath>
</defs>
</svg>
