<svg width="47" height="48" viewBox="0 0 47 48" fill="none" xmlns="http://www.w3.org/2000/svg">
<g clip-path="url(#clip0_382_14203)">
<path d="M32.2152 31.126C30.6956 32.4781 28.7997 34.1607 25.352 34.1607H23.2961C20.804 34.1607 18.538 33.254 16.9165 31.6081C15.3326 30.0007 14.4602 27.8002 14.4602 25.4115V22.5883C14.4602 20.1996 15.3326 17.9991 16.9165 16.3918C18.538 14.7458 20.804 13.8391 23.2961 13.8391H25.352C28.7997 13.8391 30.6938 15.5218 32.2152 16.8738C33.7929 18.276 35.1561 19.4864 38.787 19.4864C39.3409 19.4866 39.8939 19.4422 40.4407 19.3538C40.4407 19.3431 40.4335 19.3332 40.4291 19.3225C40.2113 18.7811 39.9559 18.2556 39.6648 17.75L37.237 13.5345C36.1424 11.6343 34.5682 10.0564 32.6724 8.95924C30.7767 7.8621 28.6263 7.28439 26.4372 7.28418H21.5808C19.3917 7.28439 17.2413 7.8621 15.3456 8.95924C13.4498 10.0564 11.8756 11.6343 10.781 13.5345L8.3532 17.75C7.25878 19.6503 6.68262 21.8058 6.68262 23.9999C6.68262 26.1941 7.25878 28.3496 8.3532 30.2498L10.781 34.4653C11.8756 36.3654 13.4499 37.9432 15.3457 39.0402C17.2414 40.1372 19.3918 40.7147 21.5808 40.7148H26.4372C28.6262 40.7147 30.7766 40.1372 32.6723 39.0402C34.5681 37.9432 36.1424 36.3654 37.237 34.4653L39.6648 30.2498C39.9559 29.7442 40.2113 29.2188 40.4291 28.6773C40.4291 28.6666 40.4371 28.6567 40.4407 28.646C39.8939 28.5576 39.3409 28.5133 38.787 28.5134C35.1561 28.5134 33.7929 29.7238 32.2152 31.126Z" fill="#006BFF"/>
<path d="M25.3526 16.3962H23.2966C19.5048 16.3962 17.0127 19.111 17.0127 22.5865V25.4097C17.0127 28.8852 19.5048 31.6 23.2966 31.6H25.3526C30.8785 31.6 30.4477 25.9554 38.7875 25.9554C39.5782 25.9547 40.3672 26.027 41.1447 26.1713C41.3976 24.7351 41.3976 23.2656 41.1447 21.8294C40.3673 21.9745 39.5782 22.047 38.7875 22.0463C30.445 22.0454 30.8785 16.3962 25.3526 16.3962Z" fill="#006BFF"/>
<path d="M45.9372 28.2348C44.5156 27.1934 42.8768 26.4888 41.1442 26.1741C41.1442 26.1884 41.1398 26.2028 41.1371 26.2162C40.9884 27.049 40.755 27.8644 40.4407 28.6497C41.8722 28.8717 43.2305 29.4318 44.4033 30.2839C44.4033 30.2965 44.3961 30.309 44.3917 30.3224C43.727 32.4861 42.7225 34.5298 41.416 36.3765C40.1244 38.2062 38.5562 39.8228 36.7678 41.1682C32.4385 44.4327 27.0347 45.929 21.6475 45.355C16.2602 44.781 11.291 42.1795 7.74313 38.0756C4.19525 33.9718 2.33307 28.6715 2.53259 23.2449C2.73211 17.8183 4.97847 12.6697 8.81809 8.83878C11.4265 6.22618 14.6642 4.33344 18.2171 3.34406C21.7701 2.35469 25.5178 2.30224 29.0969 3.19182C32.676 4.0814 35.9651 5.88282 38.6453 8.42142C41.3255 10.96 43.3059 14.1497 44.3944 17.6811C44.3988 17.6946 44.4024 17.7071 44.406 17.7197C43.2323 18.5718 41.8731 19.1317 40.4407 19.353C40.7549 20.139 40.9885 20.9549 41.138 21.7883C41.138 21.8017 41.138 21.8152 41.1442 21.8277C42.8771 21.5139 44.516 20.8092 45.9372 19.767C47.3039 18.7536 47.0393 17.6086 46.8311 16.9312C43.8196 7.12478 34.7119 0 23.9434 0C10.7203 0 0 10.7454 0 23.9996C0 37.2537 10.7203 48 23.9434 48C34.7119 48 43.8196 40.8752 46.8266 31.0715C47.0393 30.3941 47.3039 29.2491 45.9372 28.2348Z" fill="#006BFF"/>
<path d="M40.4405 19.3531C39.8937 19.4415 39.3407 19.4858 38.7868 19.4857C35.1559 19.4857 33.7927 18.2752 32.215 16.873C30.6954 15.521 28.7995 13.8384 25.3518 13.8384H23.2959C20.8038 13.8384 18.5378 14.7451 16.9163 16.391C15.3324 17.9984 14.46 20.1989 14.46 22.5876V25.4108C14.46 27.7994 15.3324 30 16.9163 31.6073C18.5378 33.2532 20.8038 34.16 23.2959 34.16H25.3518C28.7995 34.16 30.6936 32.4773 32.215 31.1253C33.7927 29.7231 35.1559 28.5126 38.7868 28.5126C39.3407 28.5125 39.8937 28.5569 40.4405 28.6452C40.7548 27.86 40.9881 27.0446 41.1368 26.2118C41.1368 26.1983 41.1422 26.184 41.1439 26.1697C40.3665 26.0254 39.5775 25.9531 38.7868 25.9537C30.4443 25.9537 30.8778 31.5984 25.3518 31.5984H23.2959C19.5041 31.5984 17.012 28.8836 17.012 25.4081V22.5885C17.012 19.113 19.5041 16.3982 23.2959 16.3982H25.3518C30.8778 16.3982 30.4469 22.0428 38.7868 22.0428C39.5775 22.0436 40.3666 21.971 41.1439 21.826C41.1439 21.8134 41.1439 21.8 41.1377 21.7866C40.9881 20.9538 40.7545 20.1385 40.4405 19.3531Z" fill="#0AE9EF"/>
<path d="M40.4405 19.3531C39.8937 19.4415 39.3407 19.4858 38.7868 19.4857C35.1559 19.4857 33.7927 18.2752 32.215 16.873C30.6954 15.521 28.7995 13.8384 25.3518 13.8384H23.2959C20.8038 13.8384 18.5378 14.7451 16.9163 16.391C15.3324 17.9984 14.46 20.1989 14.46 22.5876V25.4108C14.46 27.7994 15.3324 30 16.9163 31.6073C18.5378 33.2532 20.8038 34.16 23.2959 34.16H25.3518C28.7995 34.16 30.6936 32.4773 32.215 31.1253C33.7927 29.7231 35.1559 28.5126 38.7868 28.5126C39.3407 28.5125 39.8937 28.5569 40.4405 28.6452C40.7548 27.86 40.9881 27.0446 41.1368 26.2118C41.1368 26.1983 41.1422 26.184 41.1439 26.1697C40.3665 26.0254 39.5775 25.9531 38.7868 25.9537C30.4443 25.9537 30.8778 31.5984 25.3518 31.5984H23.2959C19.5041 31.5984 17.012 28.8836 17.012 25.4081V22.5885C17.012 19.113 19.5041 16.3982 23.2959 16.3982H25.3518C30.8778 16.3982 30.4469 22.0428 38.7868 22.0428C39.5775 22.0436 40.3666 21.971 41.1439 21.826C41.1439 21.8134 41.1439 21.8 41.1377 21.7866C40.9881 20.9538 40.7545 20.1385 40.4405 19.3531Z" fill="#0AE9EF"/>
</g>
<defs>
<clipPath id="clip0_382_14203">
<rect width="47" height="48" fill="white"/>
</clipPath>
</defs>
</svg>
