<svg width="52" height="48" viewBox="0 0 52 48" fill="none" xmlns="http://www.w3.org/2000/svg">
<g clip-path="url(#clip0_382_13944)">
<path d="M15.2975 0L0.00292969 9.91193L10.5783 18.3177L25.9999 8.8657L15.2975 0ZM0.00292969 26.7239L15.2975 36.6359L25.9999 27.7691L10.5783 18.3177L0.00292969 26.7239ZM25.9999 27.7691L36.7023 36.6359L51.9969 26.7239L41.4216 18.3177L25.9999 27.7691Z" fill="#007EE5"/>
<path d="M51.9967 9.91192L36.7021 0L25.9997 8.86576L41.4213 18.3177L51.9967 9.91192ZM26.0311 29.6769L15.2973 38.5174L10.7041 35.5408V38.8775L26.0311 47.9999L41.3581 38.8775V35.5407L36.7649 38.5174L26.0311 29.6769Z" fill="#007EE5"/>
</g>
<defs>
<clipPath id="clip0_382_13944">
<rect width="52" height="48" fill="white"/>
</clipPath>
</defs>
</svg>
