<svg width="43" height="48" viewBox="0 0 43 48" fill="none" xmlns="http://www.w3.org/2000/svg">
<g clip-path="url(#clip0_382_14098)">
<path d="M43.0001 41.9934C43.0177 45.289 40.382 47.9724 37.1157 47.9902C36.8729 47.9922 36.6281 47.9783 36.3873 47.9487C33.356 47.4965 31.1354 44.8368 31.2098 41.7485V6.2417C31.1374 3.14951 33.3638 0.489752 36.3971 0.041523C39.6418 -0.341545 42.5811 2.0003 42.9609 5.27218C42.9884 5.51308 43.0021 5.75398 43.0001 5.99685V41.9934Z" fill="#F9AB00"/>
<path d="M5.89612 36.1091C9.1526 36.1091 11.7922 38.7708 11.7922 42.0546C11.7922 45.3383 9.1526 48 5.89612 48C2.63965 48 0 45.3383 0 42.0546C0 38.7708 2.63965 36.1091 5.89612 36.1091ZM21.4089 18.0911C18.1368 18.2727 15.599 21.0391 15.6754 24.3426V40.311C15.6754 44.6452 17.567 47.2753 20.3378 47.8361C23.5355 48.4897 26.651 46.4065 27.2992 43.182C27.3795 42.7871 27.4186 42.3863 27.4167 41.9835V24.0662C27.4226 20.7706 24.779 18.095 21.5108 18.0891C21.4775 18.0891 21.4422 18.0891 21.4089 18.0911Z" fill="#E37400"/>
</g>
<defs>
<clipPath id="clip0_382_14098">
<rect width="43" height="48" fill="white"/>
</clipPath>
</defs>
</svg>
