<svg width="75" height="49" viewBox="0 0 75 49" fill="none" xmlns="http://www.w3.org/2000/svg">
<g clip-path="url(#clip0_382_14132)">
<path d="M33.784 19.7025C39.358 16.6612 47.0556 12.4298 47.0556 0H37.7654C37.7654 6.87603 34.4475 8.72727 29.2716 11.6364C23.6975 14.6777 16 18.9091 16 31.2066H25.2901C25.2901 24.3306 28.608 22.4793 33.784 19.7025Z" fill="#FF3C00"/>
<path d="M49.7098 16.7933C49.7098 23.6694 46.3919 25.5206 41.2159 28.4297C35.6419 31.471 27.9443 35.7024 27.9443 48.1322H37.2345C37.2345 41.2561 40.5524 39.4049 45.7283 36.4958C51.3024 33.4545 58.9999 29.2231 58.9999 16.7933H49.7098Z" fill="#FF3C00"/>
</g>
<defs>
<clipPath id="clip0_382_14132">
<rect width="74.9999" height="48.1323" fill="white"/>
</clipPath>
</defs>
</svg>
