<svg width="48" height="48" viewBox="0 0 48 48" fill="none" xmlns="http://www.w3.org/2000/svg">
<path d="M36.0438 16.2483V10.6113C36.7887 10.2631 37.4195 9.71054 37.8626 9.01786C38.3057 8.32519 38.5429 7.52091 38.5467 6.69864V6.5693C38.5467 4.17185 36.6032 2.22833 34.2059 2.22833H34.0764C31.679 2.22833 29.7354 4.17185 29.7354 6.5693V6.69864C29.7392 7.52091 29.9765 8.32519 30.4196 9.01786C30.8627 9.71054 31.4934 10.2631 32.2383 10.6113V16.2483C30.0974 16.5762 28.081 17.464 26.3934 18.8217L10.9335 6.78002C11.0438 6.38207 11.1013 5.97285 11.1078 5.5621C11.1097 4.59465 10.8246 3.64838 10.2886 2.84297C9.75263 2.03757 8.98982 1.40921 8.09668 1.03739C7.20354 0.665565 6.22019 0.566979 5.27101 0.754102C4.32183 0.941224 3.44947 1.40565 2.76427 2.08863C2.07907 2.7716 1.61182 3.64245 1.42162 4.59102C1.23142 5.53959 1.32682 6.52325 1.69574 7.4176C2.06467 8.31194 2.69055 9.07678 3.49421 9.61537C4.29787 10.154 5.24322 10.4421 6.21066 10.4434C7.05701 10.4394 7.88749 10.2134 8.61919 9.78806L23.8428 21.6343C21.0439 25.8624 21.1188 31.3727 24.0313 35.5234L19.4011 40.155C19.0267 40.0354 18.6369 39.9718 18.244 39.9664C16.0265 39.9683 14.2301 41.7667 14.2306 43.9841C14.2312 46.2014 16.0288 47.9988 18.2461 47.9994C20.4635 48 22.2619 46.2035 22.2638 43.9861C22.2586 43.5932 22.1949 43.2032 22.075 42.8291L26.6556 38.2468C30.7484 41.3976 36.3695 41.669 40.747 38.9273C45.1243 36.1854 47.3334 31.0092 46.2845 25.9518C45.2357 20.8942 41.1505 17.0236 36.0438 16.2483ZM34.1452 34.7881C33.299 34.8109 32.4567 34.6639 31.6683 34.3557C30.8798 34.0476 30.161 33.5847 29.5545 32.9942C28.9479 32.4037 28.4657 31.6977 28.1365 30.9178C27.8073 30.1378 27.6377 29.2999 27.6377 28.4534C27.6377 27.6068 27.8073 26.7689 28.1365 25.989C28.4657 25.2091 28.9479 24.503 29.5545 23.9125C30.161 23.3221 30.8798 22.8591 31.6683 22.551C32.4567 22.2429 33.299 22.0958 34.1452 22.1186C37.5554 22.238 40.2587 25.0363 40.2606 28.4488C40.2621 31.8609 37.5617 34.662 34.1515 34.7848" fill="#FF7A59"/>
</svg>
