<svg width="45" height="48" viewBox="0 0 45 48" fill="none" xmlns="http://www.w3.org/2000/svg">
<g clip-path="url(#clip0_382_13976)">
<path d="M44.449 22.6724L24.1887 2.26297L22.2256 0.285339L6.9741 15.649L-3.77297e-05 22.6724C-0.348392 23.0251 -0.543945 23.5024 -0.543945 24C-0.543945 24.4975 -0.348392 24.9749 -3.77297e-05 25.3276L13.9335 39.3637L22.2256 47.7146L37.4749 32.3509L37.7124 32.1138L44.449 25.3382C44.6236 25.1636 44.7622 24.956 44.8567 24.7272C44.9513 24.4984 45 24.2531 45 24.0053C45 23.7575 44.9513 23.5121 44.8567 23.2834C44.7622 23.0546 44.6236 22.847 44.449 22.6724ZM22.2256 31.0128L15.264 24L22.2256 16.9872L29.185 24L22.2256 31.0128Z" fill="#2684FF"/>
<path d="M22.2254 16.9873C20.036 14.7823 18.8018 11.7941 18.7923 8.67537C18.7829 5.55669 19.9989 2.56096 22.1749 0.342529L6.94238 15.6808L15.2323 24.0318L22.2254 16.9873Z" fill="url(#paint0_linear_382_13976)"/>
<path d="M29.2039 23.981L22.2256 31.0128C24.4233 33.2272 25.6579 36.2303 25.6579 39.3616C25.6579 42.4929 24.4233 45.496 22.2256 47.7104L37.5002 32.3319L29.2039 23.981Z" fill="url(#paint1_linear_382_13976)"/>
</g>
<defs>
<linearGradient id="paint0_linear_382_13976" x1="20.9789" y1="9.89191" x2="11.1863" y2="19.6109" gradientUnits="userSpaceOnUse">
<stop offset="0.18" stop-color="#0052CC"/>
<stop offset="1" stop-color="#2684FF"/>
</linearGradient>
<linearGradient id="paint1_linear_382_13976" x1="23.554" y1="38.0234" x2="33.3275" y2="28.3234" gradientUnits="userSpaceOnUse">
<stop offset="0.18" stop-color="#0052CC"/>
<stop offset="1" stop-color="#2684FF"/>
</linearGradient>
<clipPath id="clip0_382_13976">
<rect width="45" height="48" fill="white"/>
</clipPath>
</defs>
</svg>
