<svg width="42" height="48" viewBox="0 0 42 48" fill="none" xmlns="http://www.w3.org/2000/svg">
<g clip-path="url(#clip0_382_14060)">
<path d="M40.3125 43.416C40.1625 43.5675 39.9751 43.6433 39.7502 43.6433C39.5253 43.6433 39.3379 43.5675 39.188 43.416C39.0381 43.2644 38.9631 43.075 38.9631 42.8477C38.9631 42.6204 39.0381 42.412 39.2067 42.2605C39.3567 42.109 39.5441 42.0521 39.7502 42.0521C39.9751 42.0521 40.1625 42.1279 40.3125 42.2794C40.4624 42.431 40.5374 42.6204 40.5374 42.8477C40.5561 43.075 40.4811 43.2644 40.3125 43.416ZM39.3005 42.3741C39.1693 42.5067 39.113 42.6583 39.113 42.8288C39.113 43.0182 39.1693 43.1697 39.3005 43.3023C39.4316 43.4349 39.5816 43.4917 39.769 43.4917C39.9564 43.4917 40.1063 43.4349 40.2375 43.3023C40.3687 43.1697 40.4249 43.0182 40.4249 42.8288C40.4249 42.6583 40.3687 42.4878 40.2375 42.3741C40.1063 42.2415 39.9564 42.1658 39.769 42.1658C39.5816 42.1847 39.4316 42.2415 39.3005 42.3741ZM40.0126 43.2455C39.9377 43.3023 39.8627 43.3213 39.7877 43.3213C39.6753 43.3213 39.5628 43.2834 39.4691 43.1887C39.3754 43.094 39.3379 42.9803 39.3379 42.8477C39.3379 42.7151 39.3754 42.6015 39.4504 42.5067C39.5253 42.412 39.6378 42.3741 39.769 42.3741C39.8439 42.3741 39.9189 42.3931 39.9939 42.431C40.0876 42.4878 40.1625 42.5825 40.1813 42.7341H39.9751C39.9564 42.6772 39.9376 42.6204 39.9002 42.6015C39.8627 42.5825 39.8252 42.5636 39.7877 42.5636C39.7315 42.5636 39.6753 42.5825 39.6378 42.6393C39.6003 42.6962 39.5816 42.7719 39.5816 42.8666C39.5816 42.9614 39.6003 43.0371 39.6378 43.075C39.6753 43.1129 39.7315 43.1508 39.7877 43.1508C39.8439 43.1508 39.8814 43.1318 39.9189 43.1129L39.9751 42.9992H40.1625C40.1438 43.1129 40.0876 43.1887 40.0126 43.2455ZM41.9992 34.8351C41.9992 34.7593 41.9804 34.6835 41.9804 34.6078C41.9804 34.5509 41.9617 34.5131 41.9617 34.4752C41.9429 34.3615 41.9242 34.2668 41.8867 34.1531C41.8118 33.9448 41.6993 33.7364 41.5494 33.5659C41.3995 33.3955 41.2308 33.2629 41.0621 33.1681C40.8747 33.0734 40.6873 33.0166 40.5374 32.9787C40.4811 32.9787 40.4437 32.9598 40.4062 32.9598C40.6123 32.0505 40.35 31.3497 40.1813 31.0277L40.2188 30.9898C40.4437 30.7625 40.6311 30.5541 40.7997 30.3457L40.8372 30.3078C40.9684 30.1184 41.0434 29.929 41.0996 29.7585C41.1371 29.607 41.1746 29.4744 41.1746 29.3418V29.2281V29.1524V28.9819C41.1558 28.6977 41.1183 28.3378 40.9309 27.94C40.8372 27.7506 40.706 27.5423 40.5374 27.3528C40.3687 27.1634 40.1625 26.9929 39.9189 26.8603C39.9002 26.8414 39.8814 26.8414 39.8627 26.8224C39.3567 26.0837 38.7944 25.4965 38.2884 25.0608C38.0261 24.8335 37.7824 24.6441 37.5763 24.4925C37.3701 24.341 37.2015 24.2273 37.1078 24.1516C36.8829 23.9811 36.7142 23.8864 36.6392 23.8485C36.4518 23.7348 36.3206 23.6401 36.2457 23.5833C36.1894 23.5265 36.152 23.5075 36.1332 23.4886C36.1332 23.4886 36.1332 23.4696 36.1145 23.4318C36.0957 23.3749 36.0957 23.2992 36.0957 23.1666C36.0957 22.9771 36.0957 22.693 36.1145 22.3142C36.152 21.708 36.2082 20.8935 36.2831 19.7759C36.3019 19.416 36.3019 19.075 36.3019 18.7719C36.2831 18.2605 36.2082 17.8059 36.1145 17.3891C36.0957 17.2944 36.0583 17.1997 36.0395 17.105C36.0208 17.0292 36.002 16.9914 35.9833 16.9535C35.9646 16.8966 35.9458 16.8398 35.9083 16.764C35.8896 16.7262 35.8896 16.6883 35.8521 16.6504C35.8146 16.5557 35.7771 16.461 35.7209 16.3663L35.7022 16.3473L35.6834 16.2905L35.6647 16.2526C35.571 16.0821 35.4585 15.9306 35.3461 15.798C35.2899 15.5328 35.1962 15.1539 35.0275 14.7183C34.8776 14.3394 34.6902 13.9227 34.409 13.506C34.3153 13.3544 34.2029 13.2218 34.0904 13.0892L34.1279 13.0513C34.1842 12.9945 35.496 11.5928 36.5455 9.7743C38.4758 6.38361 37.8387 4.31889 36.9578 3.18235L36.9391 3.14447L36.9203 3.10658C36.077 2.15946 34.9151 1.59119 33.5095 1.40177C30.5671 1.02292 27.2312 2.50043 26.3504 2.91716L24.7387 1.13657C24.5887 0.985035 24.4388 0.833496 24.2701 0.719842C24.1015 0.606188 23.9141 0.492533 23.7266 0.397821C23.3518 0.22734 22.9395 0.113686 22.4897 0.0568584C21.6089 -0.0567959 20.5969 0.0568584 19.5099 0.340994C17.8794 0.757727 16.0616 1.59119 14.15 2.74668C12.2384 3.90216 10.2518 5.39861 8.3215 7.17919C5.96013 9.33863 4.01106 11.6307 2.58674 13.828C1.87458 14.9077 1.29361 15.9685 0.862562 16.9914C0.431518 17.9953 0.150402 18.9614 0.0379558 19.8327C-0.0370084 20.4767 -0.0370084 21.0829 0.094179 21.6322C0.150402 21.8785 0.225366 22.1058 0.337813 22.3331C0.469 22.6172 0.637669 22.8824 0.843821 23.1097L2.51177 24.8714L2.69918 25.0608L2.68044 25.0797L2.62422 25.1934C2.58674 25.2502 2.568 25.3071 2.53052 25.3449L2.47429 25.4586C2.45555 25.5154 2.41807 25.5723 2.39933 25.6291L2.34311 25.7427C2.32436 25.7996 2.28688 25.8564 2.26814 25.9132C2.2494 25.9511 2.23066 25.989 2.23066 26.0269L2.17444 26.1973C2.15569 26.2352 2.15569 26.2731 2.13695 26.311C2.11821 26.3678 2.09947 26.4247 2.08073 26.5004C2.08073 26.5194 2.06199 26.5383 2.06199 26.5573C2.06199 26.5762 2.04325 26.5951 2.04325 26.6141C2.02451 26.6709 2.00577 26.7467 1.98703 26.8035C1.98703 26.8414 1.96828 26.8793 1.96828 26.9172C1.96828 26.9361 1.94954 26.974 1.94954 26.9929C1.94954 27.0308 1.9308 27.0687 1.9308 27.1066C1.9308 27.1445 1.91206 27.1824 1.91206 27.2202C1.89332 27.296 1.89332 27.3718 1.87458 27.4665C1.87458 27.4854 1.87458 27.5044 1.85584 27.5423V27.5612C1.85584 27.618 1.8371 27.6749 1.8371 27.7127C1.8371 27.7885 1.81836 27.8832 1.81836 27.959V28.9061C1.81836 28.944 1.81836 28.9819 1.8371 29.0198C1.8371 29.0576 1.8371 29.1145 1.85584 29.1713V29.2281C1.85584 29.266 1.87458 29.3228 1.87458 29.3607C1.87458 29.3986 1.89332 29.4365 1.89332 29.4933C1.89332 29.5123 1.89332 29.5312 1.91206 29.5501C1.91206 29.5691 1.9308 29.607 1.9308 29.6259V29.6638C1.9308 29.7017 1.94954 29.7396 1.96828 29.8153C1.96828 29.8343 1.96828 29.8343 1.98703 29.8532C2.00577 29.8911 2.00577 29.929 2.00577 29.9479L2.02451 29.9858C2.02451 30.0048 2.02451 30.0048 2.04325 30.0237L2.06199 30.0616V30.1184C2.06199 30.1374 2.06199 30.1374 2.08073 30.1563L2.09947 30.1942C2.09947 30.2321 2.11821 30.251 2.11821 30.2889C2.13695 30.3268 2.13695 30.3647 2.15569 30.4404C2.15569 30.4594 2.15569 30.4594 2.17444 30.4783C2.19318 30.5352 2.21192 30.573 2.21192 30.592C2.23066 30.6299 2.2494 30.6678 2.26814 30.7435L2.28688 30.7625C2.30562 30.8003 2.30562 30.8382 2.32436 30.8572L2.34311 30.8951C2.34311 30.914 2.36185 30.9329 2.36185 30.9519C2.36185 30.9708 2.38059 31.0087 2.39933 31.0277L2.41807 31.0655C2.43681 31.0845 2.43681 31.1224 2.45555 31.1413C2.47429 31.1603 2.47429 31.1792 2.47429 31.1981C2.49303 31.236 2.51177 31.2739 2.53052 31.3307L2.54926 31.3497C2.568 31.3686 2.568 31.3876 2.58674 31.4065C2.60548 31.4254 2.60548 31.4633 2.62422 31.4823C2.64296 31.5012 2.6617 31.5391 2.68044 31.5959L2.69918 31.6149C2.71793 31.6338 2.71793 31.6528 2.73667 31.6717C2.75541 31.7096 2.77415 31.7285 2.77415 31.7475C2.79289 31.7664 2.81163 31.8043 2.83037 31.8422V31.8611C2.84911 31.8801 2.84911 31.899 2.86785 31.9179C2.8866 31.9558 2.90534 31.9748 2.92408 31.9937C2.94282 32.0127 2.96156 32.0505 2.99904 32.1074C3.01778 32.1263 3.03652 32.1453 3.03652 32.1642C3.05527 32.2021 3.07401 32.221 3.09275 32.24C3.11149 32.2589 3.13023 32.2968 3.14897 32.3347C3.16771 32.3536 3.18645 32.3915 3.20519 32.4104C3.22393 32.4483 3.24268 32.4673 3.28016 32.4862L3.33638 32.543L3.35512 32.562C3.3926 32.5999 3.41134 32.6378 3.44883 32.6756L3.48631 32.7135L3.54253 32.7704L3.65498 32.884L3.69246 32.9219L3.74868 32.9787L3.76743 32.9977C3.80491 33.0355 3.86113 33.0734 3.89861 33.1303L3.91735 33.1492C3.93609 33.1681 3.95484 33.1681 3.97358 33.206C4.0298 33.2629 4.08602 33.3007 4.14225 33.3576L4.17973 33.3765L4.19847 33.3955L4.23595 33.4144C4.29217 33.4523 4.32966 33.4902 4.38588 33.528L4.40462 33.547C4.42336 33.5659 4.4421 33.5659 4.4421 33.5659L4.47958 33.6038C4.51707 33.6417 4.55455 33.6606 4.59203 33.6985L4.62951 33.7175L4.667 33.7554L4.68574 33.7743C4.72322 33.7932 4.77944 33.8311 4.81692 33.8501C4.83566 33.869 4.85441 33.888 4.89189 33.888L4.92937 33.9069L4.94811 33.9258H4.96685C5.04182 33.9637 5.09804 34.0016 5.15426 34.0395L5.19174 34.0584L5.41664 34.1721H5.43538L5.47286 34.191L5.58531 34.2479C5.60405 34.2479 5.62279 34.2668 5.64153 34.2668C5.66027 34.2857 5.67901 34.2857 5.71649 34.3047H5.73524C5.77272 34.3236 5.8102 34.3426 5.84768 34.3426H5.86642C5.9039 34.3615 5.94139 34.3805 5.99761 34.3994H6.01635L6.05383 34.4183C6.07257 34.4183 6.09131 34.4373 6.11006 34.4373H6.1288C6.18502 34.4562 6.24124 34.4752 6.31621 34.4941H6.33495C6.42865 34.532 6.52236 34.5509 6.61606 34.5699H6.63481C6.70977 34.5888 6.80347 34.6078 6.87844 34.6267H6.9534C7.02837 34.6457 7.10333 34.6646 7.1783 34.6646H7.25326C7.30948 34.6646 7.34697 34.6835 7.40319 34.6835C7.40319 34.7025 7.42193 34.7214 7.42193 34.7404C7.55312 35.1003 7.6843 35.4602 7.83423 35.8011C10.0457 41.9953 16.174 46.8067 23.1644 47.697C30.1548 48.5683 37.6325 43.8706 40.6686 37.5249C40.7997 37.2786 40.9122 37.0513 41.0246 36.8051C41.3245 36.4831 41.5681 36.161 41.7181 35.8201C41.9617 35.6117 42.0179 35.195 41.9992 34.8351Z" fill="#664F44"/>
<path d="M36.0211 3.84531C35.6837 3.46646 35.2902 3.18232 34.8591 2.97396C34.7841 2.93607 34.7092 2.91713 34.6155 2.89819C34.578 2.87925 34.5405 2.84136 34.503 2.82242C34.1282 2.67088 33.7346 2.57617 33.3223 2.51934C31.2983 2.25415 28.9744 3.01184 27.6625 3.54223C27.5876 3.58011 27.5126 3.59906 27.4377 3.63694C27.3252 3.69377 27.2128 3.73165 27.1003 3.78848C26.9129 3.86425 26.7255 3.95896 26.5193 4.05367C26.4819 4.07262 26.4631 4.07262 26.4256 4.09156L26.0696 3.67483L25.9009 3.4854L25.751 3.31492L25.6947 3.23915L24.3266 1.64799L24.2142 1.51539L24.0643 1.34491H24.0455L23.652 1.43962L23.2022 1.53434C22.9585 1.42068 22.6587 1.34491 22.3213 1.28809C21.6467 1.19337 20.7846 1.28809 19.81 1.53434C18.8355 1.78059 17.7298 2.21626 16.5678 2.80348C14.2252 3.9779 11.6389 5.77743 9.12765 8.0884C8.24682 8.88398 7.44095 9.71745 6.69131 10.532C5.96041 11.3275 5.30447 12.1421 4.70476 12.9187C3.48659 14.5288 2.56828 16.0821 1.96856 17.4838C1.575 18.412 1.33137 19.2644 1.23766 20.0032C1.1627 20.5335 1.18144 21.0071 1.27514 21.386C1.31263 21.5186 1.35011 21.6133 1.38759 21.7269C1.4813 21.9542 1.59374 22.1437 1.74367 22.3141L3.2617 23.9242L3.43037 24.0947L3.44911 24.0758C3.48659 24.0189 3.54281 23.9621 3.59904 23.9242L3.61778 23.9053L3.674 23.8485C3.71148 23.7916 3.7677 23.7538 3.80519 23.6969C3.84267 23.659 3.86141 23.6401 3.89889 23.6212C3.93637 23.6022 3.95511 23.5643 3.9926 23.5454L4.03008 23.5075C4.06756 23.4886 4.0863 23.4507 4.12378 23.4317C4.16127 23.3938 4.21749 23.356 4.25497 23.3181C4.27371 23.2991 4.3112 23.2802 4.32994 23.2613H4.34868C4.4049 23.2234 4.44238 23.1855 4.49861 23.1476C4.53609 23.1287 4.55483 23.1097 4.59231 23.0718C4.64853 23.0339 4.68602 22.9961 4.74224 22.9582C4.77972 22.9392 4.79846 22.9203 4.83594 22.9013C4.89217 22.8635 4.94839 22.8256 5.00461 22.8066C5.0421 22.7877 5.06084 22.7687 5.09832 22.7498C5.15454 22.7119 5.21077 22.693 5.26699 22.6551C5.30447 22.6362 5.32321 22.6172 5.36069 22.5983L5.39818 22.5793C5.4544 22.5604 5.49188 22.5225 5.5481 22.5036C5.56685 22.4846 5.60433 22.4846 5.62307 22.4657C5.66055 22.4467 5.69803 22.4278 5.75426 22.4088L5.8667 22.352L5.90418 22.3331L6.1853 22.2194C6.22278 22.2005 6.24152 22.2005 6.27901 22.1815C6.31649 22.1626 6.33523 22.1626 6.37271 22.1437L6.41019 22.1247C6.42893 22.1247 6.44767 22.1058 6.46642 22.1058C6.5039 22.0868 6.54138 22.0868 6.5976 22.0679H6.63509C6.69131 22.0489 6.72879 22.0489 6.78501 22.03C6.8225 22.0111 6.87872 22.0111 6.9162 21.9921C6.97242 21.9732 7.02865 21.9732 7.08487 21.9542C7.10361 21.9542 7.12235 21.9353 7.15983 21.9353C7.17858 21.9353 7.21606 21.9353 7.2348 21.9163C7.29102 21.8974 7.34725 21.8974 7.40347 21.8974C7.45969 21.8974 7.49717 21.8785 7.5534 21.8785C7.59088 21.8785 7.62836 21.8595 7.66584 21.8595H7.81577C8.00318 21.8595 8.22807 21.8595 8.45297 21.8785H8.49045C8.71534 21.8974 8.97772 21.9353 9.24009 21.9921C9.29631 22.0111 9.37128 22.0111 9.4275 22.03C9.44624 22.0111 9.44624 21.9732 9.46498 21.9542C9.61491 21.708 9.7461 21.4428 9.89603 21.1965C10.7394 19.7759 11.6389 18.5257 12.5573 17.427C12.8759 17.0481 13.1945 16.7072 13.5131 16.3662C14.8437 14.9645 16.1743 13.8848 17.3737 13.0513C17.6361 12.8619 17.9172 12.6914 18.1608 12.5209C18.5169 12.2936 18.8543 12.1042 19.1728 11.9148C19.4352 11.7632 19.6789 11.6306 19.9225 11.517C20.3161 11.3086 20.6721 11.1381 20.9907 11.0055L21.2718 10.8919C21.403 10.835 21.5342 10.7782 21.6467 10.7403C21.553 10.7214 21.4405 10.7214 21.3468 10.7214H20.972C20.8783 10.7214 20.7658 10.7214 20.6721 10.7403C20.4847 10.7593 20.2786 10.7782 20.0724 10.7972C19.9975 10.8161 19.9412 10.8161 19.8663 10.835C20.3723 10.5699 20.8783 10.3804 21.3468 10.2289C21.6654 10.1342 21.984 10.0584 22.2839 10.0016C22.6962 9.92581 23.0897 9.86899 23.4458 9.85004C23.6894 9.8311 23.9143 9.8311 24.1205 9.8311C24.3266 9.8311 24.5328 9.85004 24.7015 9.85004C25.3199 9.88793 25.6947 9.98264 25.6947 9.98264C25.601 9.85004 25.4886 9.75533 25.3761 9.66062C25.1512 9.49014 24.9076 9.37648 24.6827 9.28177C24.589 9.24389 24.514 9.22494 24.4391 9.18706C24.3829 9.16812 24.3266 9.14917 24.2892 9.14917C24.4016 9.13023 24.4953 9.11129 24.589 9.11129C24.7015 9.09235 24.7952 9.09235 24.9076 9.07341C25.7884 8.99764 26.5756 9.07341 27.1565 9.16812C27.85 9.30071 28.281 9.4712 28.281 9.4712C28.1873 9.28177 28.0374 9.11129 27.8687 8.95975C27.7563 8.86504 27.6251 8.77033 27.5126 8.69456C27.7563 8.75138 27.9624 8.80821 28.1873 8.88398C28.7495 9.05446 29.2181 9.26283 29.5929 9.43331L29.9302 9.60379C29.9677 9.62273 29.9864 9.64168 30.0052 9.64168C30.3425 9.8311 30.5299 9.9637 30.5299 9.9637C30.4737 9.75533 30.3613 9.56591 30.2113 9.39543C30.1738 9.35754 30.1364 9.30071 30.0989 9.26283H30.1176C30.1364 9.26283 30.1551 9.28177 30.1926 9.28177C30.2113 9.28177 30.2488 9.30071 30.2863 9.31966C30.4362 9.37648 30.6611 9.4712 30.9235 9.60379C30.9422 9.60379 30.9422 9.62273 30.961 9.62273L31.0734 9.67956C31.1671 9.73639 31.2608 9.77427 31.3545 9.85004L31.6356 10.0205C31.6919 10.0584 31.7294 10.0774 31.7856 10.1152C31.8793 10.191 31.9917 10.2668 32.0854 10.3615C32.1979 10.4562 32.2916 10.5509 32.3853 10.6456L32.4415 10.7024C32.5165 10.7782 32.5914 10.854 32.6477 10.9298C32.7789 11.0813 32.8913 11.2518 33.0037 11.4223C33.1349 11.6306 33.2286 11.8769 33.3223 12.1231C33.3223 12.1421 33.3223 12.161 33.3411 12.161C33.3973 12.1042 33.5098 11.9905 33.6409 11.839C34.7279 10.5509 37.9889 6.38359 36.0211 3.84531Z" fill="#132134"/>
<path d="M40.8745 34.9676C40.8745 34.9676 40.9119 34.6835 40.762 34.4183C40.762 34.3993 40.7433 34.3804 40.7433 34.3804L40.7245 34.3614L40.6683 34.3046C40.6308 34.2667 40.5933 34.2288 40.5371 34.191C40.5184 34.172 40.4809 34.1531 40.4434 34.1341C40.3497 34.0962 40.256 34.0584 40.1248 34.0394C40.0311 34.0205 39.9374 34.0205 39.825 34.0205H39.675V34.0584C39.675 34.0773 39.6938 34.0962 39.6938 34.1341C39.6938 34.1531 39.6938 34.172 39.7125 34.172C39.7313 34.2288 39.75 34.3236 39.7687 34.3993C39.7687 34.3993 39.7687 34.4183 39.75 34.4561V34.4751C39.6938 34.6077 39.5438 34.9108 39.2065 35.2896C39.1503 35.3654 39.0941 35.4222 39.0191 35.498C38.082 36.483 36.058 37.8658 31.785 38.6424C30.342 38.8508 28.9926 38.8697 27.8682 38.7182C26.1815 38.5098 24.9258 37.9605 24.3261 37.2217C24.2699 37.1649 24.2324 37.0891 24.1762 37.0323C24.1387 36.9755 24.12 36.9376 24.0825 36.8808C24.0637 36.8618 24.0637 36.8429 24.045 36.8239C23.8014 36.3693 23.6889 35.8768 23.6889 35.4033C23.6889 34.816 23.8763 34.2667 24.1762 33.85C24.4198 33.509 24.7384 33.2438 25.132 33.1302C25.3194 33.0734 25.5255 33.0355 25.7317 33.0544C25.7692 33.0544 25.8254 33.0544 25.9004 33.0734C26.0315 33.0923 26.2377 33.1112 26.4813 33.1491C26.5001 33.1491 26.5376 33.1491 26.5563 33.1681C27.3622 33.2628 28.6366 33.3954 30.1733 33.3007C32.9845 33.1302 36.6765 32.2399 40.0311 29.1712V29.1523C40.0499 28.8871 40.0124 28.4325 39.6938 28.0726C39.6375 28.0157 39.5813 27.9589 39.5064 27.9021C39.4689 27.8642 39.4127 27.8453 39.3752 27.8074C39.319 27.7884 39.2815 27.7505 39.244 27.7316L39.0753 27.6179V27.599C39.0566 27.5611 39.0378 27.5232 39.0004 27.4853C38.1383 26.1594 36.9388 25.3827 36.4516 25.0228C36.2267 24.8524 36.0767 24.7766 36.0767 24.7766C35.046 24.1325 34.8961 23.9242 34.9898 22.2004C35.0272 21.5753 35.0835 20.7608 35.1584 19.6432C35.1584 19.4917 35.1772 19.3591 35.1772 19.2265V19.1318V18.6771C35.1772 18.5824 35.1584 18.4877 35.1584 18.4119C35.1584 18.3741 35.1584 18.3362 35.1397 18.2983C35.121 18.2036 35.121 18.1089 35.1022 18.0142C35.1022 17.9763 35.0835 17.9194 35.0835 17.8816C35.0835 17.8247 35.0647 17.7868 35.046 17.73C35.0272 17.6921 35.0272 17.6353 35.0085 17.5974C34.9898 17.5406 34.971 17.4838 34.971 17.4269C34.971 17.408 34.9523 17.3891 34.9523 17.3701C34.9523 17.3512 34.9335 17.3322 34.9335 17.3133V17.2943L34.9148 17.2375C34.8961 17.1996 34.8773 17.1617 34.8773 17.1239V17.1049L34.8586 17.067L34.8398 17.0292C34.8024 16.9534 34.7836 16.8776 34.7461 16.8208L34.7274 16.764C34.6899 16.7071 34.6524 16.6314 34.6149 16.5745L34.5962 16.5556L34.5775 16.5367C34.54 16.4988 34.5212 16.4609 34.4838 16.423L34.4463 16.3662C34.4088 16.3093 34.3713 16.2715 34.3338 16.2336V16.082C34.3151 16.0063 34.2963 15.9116 34.2776 15.8168C34.2776 15.7979 34.2589 15.76 34.2589 15.7411V15.7221C34.2589 15.6842 34.2401 15.6653 34.2401 15.6274C34.2214 15.5516 34.2026 15.4759 34.1652 15.4001C34.1652 15.3812 34.1464 15.3433 34.1464 15.3243L34.0902 15.1539C34.0715 15.116 34.0715 15.0781 34.0527 15.0591C34.034 15.0023 34.0152 14.9455 33.9778 14.8887L33.9215 14.775C33.9028 14.7182 33.8653 14.6614 33.8466 14.6045L33.7903 14.4909C33.7529 14.434 33.7341 14.3772 33.6966 14.3204L33.6404 14.2067C33.6029 14.1499 33.5654 14.0931 33.528 14.0173C33.5092 13.9794 33.4905 13.9605 33.4717 13.9226C33.453 13.9037 33.4343 13.8658 33.4155 13.8468C33.3593 13.79 33.3218 13.7332 33.2656 13.6764L33.2281 13.6574C33.1531 13.5816 33.0969 13.5059 33.022 13.449L33.0032 13.4301C32.9657 13.4112 32.9283 13.3733 32.9095 13.3543H32.8908C32.8533 13.3354 32.8345 13.3164 32.7971 13.2975L32.7783 13.2786C32.7408 13.2596 32.6846 13.2217 32.6097 13.1838C32.5909 13.1649 32.5534 13.1649 32.5159 13.146C32.3473 13.0891 32.1411 13.0134 31.8788 12.9376C31.86 12.9376 31.8413 12.9376 31.8225 12.9187C31.6164 12.8618 31.3727 12.805 31.1104 12.7671C31.0167 12.7482 30.9417 12.7482 30.848 12.7292C30.8105 12.7292 30.773 12.7292 30.7168 12.7103H30.6606C30.4544 12.6913 30.267 12.6724 30.0609 12.6724H30.0421C29.7798 12.6724 29.5174 12.6913 29.2737 12.7482C29.33 12.6535 29.4986 12.5398 29.6486 12.4451C29.8547 12.3314 30.0421 12.2557 30.0421 12.2557C29.9297 12.2557 29.8172 12.2746 29.7048 12.2936C29.6673 12.2936 29.6298 12.3125 29.5923 12.3125C29.5736 12.3125 29.5361 12.3125 29.5174 12.3314H29.4986C29.4799 12.3314 29.4612 12.3314 29.4424 12.3504C28.8614 12.483 28.2992 12.6913 27.9806 12.8239L27.8682 12.8808H27.8494C27.8119 12.8808 27.7932 12.8808 27.7557 12.8997C27.9806 12.464 28.318 12.2367 28.5803 12.1231C28.6178 12.1041 28.674 12.0852 28.7115 12.0662C28.7303 12.0662 28.7303 12.0662 28.749 12.0473C28.7865 12.0284 28.824 12.0284 28.8427 12.0094C28.8989 11.9905 28.9364 11.9905 28.9364 11.9905H28.6366C27.9994 12.0662 27.4184 12.2746 26.9311 12.5588C26.5938 12.7482 26.2939 12.9565 26.0315 13.1649C25.9566 13.1838 25.9004 13.2028 25.8254 13.2028C25.1132 13.3543 24.3074 13.5438 23.464 13.8089C23.1454 13.9037 22.8268 14.0173 22.5082 14.131C22.2646 14.2257 22.0022 14.3204 21.7586 14.4151C21.5712 14.4909 21.4025 14.5666 21.2151 14.6424C19.922 15.2296 18.6288 16.0063 17.5606 17.0481L17.4481 17.1617L17.167 17.4459L17.0546 17.5595C17.0171 17.6164 16.9609 17.6732 16.9234 17.7111C16.7172 17.9384 16.5298 18.1846 16.3424 18.4498C16.2112 18.6393 16.08 18.8476 15.9676 19.056L15.9489 19.0749C15.7052 19.5106 15.4803 19.9652 15.3117 20.4767C15.218 20.7229 15.143 20.9881 15.068 21.2533C15.0493 21.3291 15.0305 21.3859 15.0118 21.4617L14.9931 21.4996C14.9181 21.7837 14.8619 22.0868 14.8244 22.3898C14.8244 22.4467 14.8057 22.5035 14.8057 22.5793C14.7869 22.7308 14.7682 22.8823 14.7682 23.0528C14.7494 23.2044 14.7494 23.337 14.7494 23.4885V24.0757C14.7494 24.2462 14.7494 24.4167 14.7682 24.5872V24.6061C14.7682 24.7766 14.7869 24.9471 14.8057 25.1365C14.8057 25.2123 14.8244 25.288 14.8244 25.3638V25.4206C14.8244 25.4585 14.8244 25.4964 14.8431 25.5532C14.8619 25.7426 14.8994 25.951 14.9181 26.1594C14.9181 26.2162 14.9368 26.273 14.9368 26.3299C14.9743 26.5003 14.9931 26.6898 15.0305 26.8603C15.0305 26.8603 14.9931 26.6329 15.0118 26.292C15.0118 26.2162 15.0305 26.1215 15.0305 26.0457C15.0493 25.8563 15.0868 25.629 15.1617 25.4206L15.218 25.2501C15.218 25.2312 15.2367 25.2123 15.2554 25.1744C15.2929 25.0797 15.3491 24.966 15.4054 24.8713C15.4241 24.9471 15.4241 25.0228 15.4429 25.0797V26.0836C15.4616 26.7277 15.5178 27.5043 15.649 28.1673C15.649 28.1673 15.6677 26.9739 15.8739 26.8224C15.8739 26.8224 16.23 29.0576 16.5486 29.891C16.5861 30.0047 16.6423 30.0805 16.6798 30.1373V29.91L16.6423 28.6787V28.5461C16.8859 29.0576 17.167 29.569 17.4856 30.1183C17.5793 30.2699 17.6543 30.4214 17.748 30.573C17.1483 31.1033 16.5861 31.88 16.1738 32.7892C16.1175 32.9408 16.0426 33.0923 15.9863 33.2438C15.9489 33.3385 15.9301 33.4143 15.8926 33.509C15.8926 33.528 15.8739 33.5659 15.8739 33.5848C15.8552 33.6416 15.8364 33.7174 15.8177 33.7742C15.8177 33.8121 15.7989 33.831 15.7989 33.8689C15.7802 33.9258 15.7614 34.0015 15.7427 34.0584C15.7427 34.0962 15.724 34.1152 15.724 34.1531L15.6677 34.4372C15.649 34.5319 15.6303 34.6266 15.6303 34.7213C15.6303 34.7592 15.6303 34.7782 15.6115 34.8161C15.6115 34.8918 15.5928 34.9486 15.5928 35.0244C15.5928 35.0623 15.5928 35.1002 15.574 35.1381C15.574 35.2138 15.5553 35.2707 15.5553 35.3464V36.0094C15.5553 36.0852 15.5553 36.161 15.574 36.2557V36.3125C15.574 36.4072 15.5928 36.5019 15.6115 36.6156C15.6115 36.6535 15.6115 36.6724 15.6303 36.7103C15.6303 36.7861 15.649 36.8429 15.6677 36.9187C15.6677 36.9565 15.6865 36.9944 15.6865 37.0323C15.7052 37.0891 15.7052 37.1649 15.724 37.2217C15.724 37.2596 15.7427 37.2975 15.7427 37.3354C15.7614 37.3922 15.7802 37.449 15.7802 37.5248C15.7989 37.5627 15.7989 37.6006 15.8177 37.6574C15.8364 37.7142 15.8552 37.79 15.8739 37.8468C15.8926 37.8847 15.8926 37.9226 15.9114 37.9605C15.9301 38.0173 15.9489 38.0931 15.9676 38.1499C15.9863 38.1878 15.9863 38.2257 16.0051 38.2636C16.0238 38.3393 16.0613 38.4151 16.08 38.4719C16.0988 38.5098 16.0988 38.5288 16.1175 38.5666L16.3986 39.1917C16.4174 39.2296 16.4361 39.2486 16.4549 39.2865L16.5673 39.5138C16.5861 39.5516 16.6048 39.5895 16.6423 39.6274C16.6798 39.6842 16.7172 39.76 16.7547 39.8168C16.7735 39.8547 16.8109 39.8926 16.8297 39.9305C16.8672 39.9873 16.9047 40.0631 16.9609 40.1199C16.9984 40.1578 17.0171 40.1957 17.0546 40.2525C17.0921 40.3093 17.1483 40.3851 17.1858 40.4419C17.2233 40.4798 17.242 40.5177 17.2795 40.5745C17.3357 40.6314 17.3732 40.7071 17.4294 40.764C17.4669 40.8018 17.4856 40.8397 17.5231 40.8776C17.5793 40.9534 17.6356 41.0102 17.7105 41.086L17.8042 41.1807C17.8979 41.2754 17.9916 41.3891 18.0853 41.4838C18.0853 41.4838 18.0291 41.408 17.9542 41.2565C17.9354 41.2375 17.9167 41.1996 17.9167 41.1618L17.8604 41.0481C17.8417 41.0102 17.823 40.9723 17.8042 40.9155C17.6543 40.5745 17.5231 40.082 17.5418 39.5516L17.7105 39.779C17.7667 39.9116 17.8604 40.082 17.9542 40.2715C17.9916 40.3283 18.0291 40.4041 18.0479 40.4609C18.1978 40.7261 18.3477 41.0292 18.5351 41.3133C18.76 41.6732 18.9849 42.0142 19.2285 42.3362C19.2285 42.3362 18.9474 41.73 18.8537 41.3322C18.835 41.2186 18.8162 41.1239 18.835 41.067C18.8537 41.086 18.8725 41.1239 18.9099 41.1428C18.9287 41.1617 18.9474 41.1996 18.9849 41.2186C19.0224 41.2754 19.0786 41.3512 19.1536 41.4459L19.1911 41.4838C19.2285 41.5217 19.2473 41.5785 19.2848 41.6164C19.3222 41.6732 19.3597 41.73 19.416 41.7868C19.8095 42.2983 20.353 42.9802 20.7278 43.3401C20.859 43.4538 20.9715 43.5485 21.0464 43.5864L20.5029 42.6014C21.7398 43.6243 26.8749 44.9313 31.9162 43.4727C32.5347 43.3022 33.1344 43.0749 33.7341 42.8097C34.0902 42.6582 34.4463 42.4688 34.8024 42.2794L34.8586 42.2415C35.1022 42.1089 35.3458 41.9573 35.5895 41.8058C35.7769 41.6921 35.9643 41.5595 36.133 41.4459C36.4328 41.2375 36.7327 41.0102 37.0325 40.764C37.0513 40.745 37.07 40.7261 37.0888 40.7261C37.3699 40.4798 37.651 40.2146 37.8946 39.9494C38.232 39.5895 38.5318 39.2296 38.7942 38.8697L38.8129 38.8508C38.8879 38.7561 38.9441 38.6803 39.0004 38.5856L39.0191 38.5666C39.0378 38.5288 39.0566 38.5098 39.0753 38.4719C39.169 38.3393 39.244 38.2257 39.3377 38.0931C39.3564 38.0552 39.3752 38.0363 39.3939 37.9984C39.4314 37.9226 39.4689 37.8658 39.5251 37.79C39.5626 37.7332 39.5813 37.6953 39.6188 37.6385C39.6563 37.5816 39.6938 37.5248 39.7125 37.468C39.7687 37.3733 39.825 37.2596 39.8812 37.1649L39.9374 37.0513L40.0499 36.8239L40.1061 36.7103L40.1248 36.6724C40.1623 36.5777 40.2185 36.483 40.256 36.3883V36.3693C40.4247 36.2178 40.5371 36.0662 40.6496 35.9337C40.6683 35.9147 40.687 35.8958 40.687 35.8768C40.7995 35.5169 40.8745 35.2328 40.8745 34.9676ZM10.7201 31.2928C10.7201 31.2738 10.7201 31.2549 10.7014 31.217C10.6451 30.895 10.5889 30.554 10.5702 30.2131V30.1373C10.514 30.1562 10.4577 30.232 10.3828 30.3267C10.364 30.3646 10.3265 30.4025 10.3078 30.4593C10.1391 30.7813 9.9892 31.2359 9.9892 31.2359C10.0079 31.0844 10.0267 30.9329 10.0267 30.7813V30.7245C10.0454 30.573 10.0642 30.4025 10.0829 30.2509V30.1941C10.1017 30.0047 10.1391 29.8342 10.1766 29.6637C10.1766 29.6448 10.1766 29.6258 10.1954 29.588V29.569C10.1954 29.5501 10.1954 29.5311 10.2141 29.5122C10.2141 29.4743 10.2328 29.4554 10.2328 29.4175C10.2516 29.2849 10.2891 29.1523 10.3078 29.0197C10.3265 28.906 10.3453 28.7924 10.364 28.6977V28.6598C10.364 28.6408 10.364 28.6219 10.3828 28.6219V28.584C10.3828 28.5651 10.4015 28.5272 10.4015 28.5082C10.4015 28.4893 10.4015 28.4704 10.4202 28.4514C10.4202 28.4135 10.439 28.3756 10.439 28.3567C10.439 28.3378 10.4577 28.2999 10.4577 28.2809C10.4577 28.243 10.4765 28.2052 10.4765 28.1862C10.4765 28.1673 10.4765 28.1483 10.4952 28.1294C10.4952 28.1104 10.4952 28.0915 10.514 28.0915C10.514 28.0536 10.5327 28.0347 10.5327 28.0157V27.9589L10.4952 27.9968C10.4577 28.0157 10.439 28.0536 10.4015 28.0726L10.364 28.1104C10.3265 28.1483 10.2891 28.1862 10.2703 28.2241L10.2516 28.243L10.1391 28.4135L10.1204 28.4325C10.1204 28.4514 10.1017 28.4514 10.1017 28.4704L10.0454 28.584V28.6219C10.0267 28.6787 9.9892 28.7355 9.97046 28.7924C9.91424 28.9439 9.85802 29.0955 9.82054 29.228C9.80179 29.2659 9.80179 29.3228 9.78305 29.3417C9.76431 29.4175 9.74557 29.4932 9.74557 29.5122C9.74557 29.4554 9.74557 29.4175 9.76431 29.3606C9.76431 29.2659 9.78305 29.1523 9.78305 29.0576C9.78305 28.9818 9.80179 28.8871 9.82054 28.8113C9.82054 28.7924 9.82054 28.7545 9.83928 28.7355C9.83928 28.6977 9.85802 28.6598 9.85802 28.6219C9.85802 28.584 9.87676 28.5461 9.87676 28.5082V28.4514C9.87676 28.4135 9.8955 28.3567 9.8955 28.3188V28.2241V28.1862C9.8955 28.1673 9.8955 28.1483 9.91424 28.1294C9.93298 28.0726 9.95172 27.9968 9.95172 27.94V27.921C9.97046 27.8831 9.97046 27.8263 9.9892 27.7884V27.7695C10.0079 27.6748 10.0454 27.5801 10.0642 27.4853V27.4475C10.0642 27.4285 10.0642 27.4096 10.0829 27.3906C10.1204 27.2391 10.1766 27.0876 10.2141 26.955V26.936C10.2516 26.8224 10.3078 26.6898 10.3453 26.5761V26.5572C10.364 26.5003 10.3828 26.4625 10.4015 26.4056C10.439 26.3299 10.4577 26.2541 10.4952 26.1783C10.4952 26.1594 10.514 26.1215 10.5514 26.0457C10.5702 26.0268 10.5702 25.9889 10.5889 25.97C10.6077 25.9321 10.6264 25.8942 10.6451 25.8374L10.6639 25.7995L10.9825 25.2123C11.0012 25.1933 11.0012 25.1554 11.02 25.1365V25.1176L11.0387 25.0797C11.0762 25.0228 11.1137 24.9471 11.1511 24.8902C11.2074 24.7955 11.2449 24.7008 11.3011 24.625C11.3948 24.4546 11.4697 24.303 11.526 24.2273C11.5447 24.1704 11.5635 24.1515 11.5822 24.1325C11.5635 24.1325 11.4697 24.0568 11.3198 23.9621C11.1324 23.8484 10.87 23.6969 10.5514 23.5453C10.439 23.4885 10.3453 23.4506 10.2328 23.3938C10.1017 23.337 9.95172 23.2801 9.80179 23.2233C9.76431 23.2044 9.72683 23.2044 9.68935 23.1854C9.55816 23.1475 9.44571 23.1097 9.31453 23.0718C9.22082 23.0528 9.12712 23.0339 9.05215 23.0149C8.97719 22.996 8.90222 22.996 8.82726 22.9771C8.78978 22.9771 8.7523 22.9771 8.71481 22.9581C8.67733 22.9581 8.63985 22.9581 8.60237 22.9392C8.50866 22.9392 8.39621 22.9202 8.30251 22.9202H8.15258C7.92769 22.9202 7.72154 22.9392 7.51539 22.9771H7.4779C7.10308 23.0339 6.747 23.1286 6.39092 23.2612C6.27848 23.2991 6.16603 23.3559 6.03484 23.4127C5.99736 23.4317 5.97862 23.4506 5.94114 23.4506L5.82869 23.5074C5.49135 23.6779 5.17275 23.9052 4.8729 24.1515H4.85416C4.59178 24.3599 4.36689 24.6061 4.16074 24.8524L3.99207 25.0797C3.9171 25.1744 3.86088 25.2691 3.80466 25.3638C3.69221 25.5343 3.57976 25.7237 3.48606 25.9131C3.44858 25.9889 3.4111 26.0457 3.39235 26.1215C3.39235 26.1404 3.37361 26.1404 3.37361 26.1594C3.1862 26.614 3.03627 27.0876 2.98005 27.599C2.96131 27.6937 2.96131 27.7884 2.94257 27.9021V27.94C2.94257 28.0157 2.92383 28.0915 2.92383 28.1862V28.5272C2.92383 28.603 2.92383 28.6787 2.94257 28.7545V28.8492C2.94257 28.906 2.96131 28.9629 2.96131 29.0197V29.0386C2.96131 29.0765 2.96131 29.0955 2.98005 29.1333C2.98005 29.1902 2.99879 29.247 2.99879 29.2849C2.99879 29.3228 3.01753 29.3606 3.01753 29.3985C3.03627 29.4554 3.03627 29.4932 3.05502 29.5501C3.05502 29.588 3.07376 29.6258 3.0925 29.6637V29.6827L3.11124 29.7205V29.7584L3.12998 29.7963C3.14872 29.8342 3.14872 29.8721 3.16746 29.91C3.1862 29.9479 3.1862 30.0047 3.20494 30.0426C3.22368 30.0805 3.24243 30.1183 3.24243 30.1752L3.26117 30.2131C3.27991 30.2509 3.27991 30.2699 3.29865 30.3078C3.31739 30.3456 3.33613 30.3835 3.35487 30.4404L3.4111 30.554C3.42984 30.573 3.42984 30.5919 3.44858 30.6108C3.46732 30.6298 3.46732 30.6487 3.48606 30.6677L3.54228 30.7813C3.56102 30.8192 3.57976 30.876 3.61725 30.9139C3.63599 30.9518 3.65473 30.9897 3.67347 31.0086C3.69221 31.0465 3.72969 31.1033 3.74843 31.1412C3.76718 31.1791 3.78592 31.1981 3.80466 31.2359C3.8234 31.2738 3.86088 31.3307 3.89836 31.3685C3.9171 31.4064 3.93584 31.4254 3.95459 31.4443C3.99207 31.4822 4.01081 31.539 4.04829 31.5769C4.06703 31.5958 4.08577 31.6337 4.10451 31.6527C4.142 31.6906 4.17948 31.7474 4.21696 31.7853C4.2357 31.8042 4.25444 31.8232 4.27318 31.861C4.31067 31.8989 4.34815 31.9557 4.38563 31.9936L4.44185 32.0505C4.47934 32.0883 4.51682 32.1452 4.57304 32.1831L4.62926 32.2399L4.76045 32.3725C4.77919 32.3914 4.79793 32.4104 4.81667 32.4104C4.85416 32.4483 4.91038 32.4861 4.9666 32.543C4.98534 32.5619 5.00408 32.5619 5.02283 32.5809C5.07905 32.6187 5.11653 32.6566 5.17275 32.6945C5.1915 32.7134 5.21024 32.7134 5.21024 32.7324L5.37891 32.846L5.41639 32.865L5.58506 32.9786L5.62254 32.9976C5.67876 33.0355 5.75373 33.0734 5.80995 33.1112L5.84743 33.1302C5.90366 33.1681 5.97862 33.2059 6.03484 33.2249L6.07232 33.2438C6.14729 33.2817 6.20351 33.3007 6.27848 33.3385L6.29722 33.3575C6.37218 33.3954 6.44715 33.4143 6.50337 33.4522H6.52211C6.59707 33.4711 6.67204 33.509 6.747 33.528H6.76574C6.80323 33.5469 6.84071 33.5469 6.87819 33.5659C6.91567 33.5848 6.95315 33.5848 7.00938 33.6037H7.02812C7.10308 33.6227 7.19679 33.6416 7.27175 33.6606C7.34672 33.6795 7.44042 33.6985 7.51539 33.6985C7.77776 33.7363 8.04013 33.7553 8.30251 33.7742H8.48992C8.58363 33.7742 8.65859 33.7742 8.7523 33.7553C8.86474 33.7363 8.99593 33.7363 9.12712 33.7174C9.23956 33.6985 9.35201 33.6795 9.44571 33.6606C9.61438 33.6227 9.78305 33.5848 9.93298 33.528C10.4202 33.3954 10.8326 33.2059 11.0949 32.9976C11.0949 32.9976 10.9263 32.2399 10.7951 31.4822C10.7576 31.4443 10.7388 31.3685 10.7201 31.2928Z" fill="#90694C"/>
<path d="M22.7522 3.14446L22.696 2.38677L23.0708 1.5533L23.2207 1.51542C22.9771 1.40176 22.6772 1.32599 22.3399 1.26916C21.6652 1.17445 20.8031 1.26916 19.8286 1.51542C18.8541 1.76167 17.7483 2.19734 16.5864 2.78456C14.2438 3.95898 11.6575 5.75851 9.1462 8.06948C8.26537 8.86506 7.4595 9.69853 6.70986 10.513C5.97896 11.3086 5.32303 12.1232 4.72331 12.8998C3.50514 14.5099 2.58683 16.0632 1.98712 17.4649C1.59356 18.3931 1.34992 19.2455 1.25622 19.9842C1.18125 20.5146 1.19999 20.9882 1.2937 21.367C1.33118 21.4996 1.36866 21.5943 1.40615 21.708C1.49985 21.9353 1.6123 22.1247 1.76223 22.2952L3.28025 23.9053L3.44892 24.0758L3.46766 24.0569C3.50514 24 3.56137 23.9432 3.61759 23.9053L3.63633 23.8864L3.69255 23.8295C3.73004 23.7727 3.78626 23.7348 3.82374 23.678C3.86122 23.6401 3.87996 23.6212 3.91745 23.6022C3.95493 23.5833 3.97367 23.5454 4.01115 23.5265L4.04863 23.4886C4.08612 23.4696 4.10486 23.4318 4.14234 23.4128C4.17982 23.3749 4.23604 23.337 4.27353 23.2992C4.29227 23.2802 4.32975 23.2613 4.34849 23.2423H4.36723C4.42345 23.2044 4.46094 23.1666 4.51716 23.1287C4.55464 23.1097 4.57338 23.0908 4.61087 23.0529C4.66709 23.015 4.70457 22.9771 4.76079 22.9393C4.79828 22.9203 4.81702 22.9014 4.8545 22.8824C4.91072 22.8445 4.96694 22.8067 5.02317 22.7877C5.06065 22.7688 5.07939 22.7498 5.11687 22.7309C5.1731 22.693 5.22932 22.6741 5.28554 22.6362C5.32303 22.6172 5.34177 22.5983 5.37925 22.5793L5.41673 22.5604C5.77281 21.5565 6.3163 20.4389 7.02846 19.3023C7.89055 17.9006 8.99627 16.4231 10.3081 14.9456C11.1328 14.0174 12.0323 13.0892 13.0069 12.1989C14.2625 11.0434 15.5556 10.0016 16.83 9.09237C17.6921 8.48621 18.5355 7.93688 19.3601 7.46332C19.435 7.42544 19.51 7.36861 19.6037 7.33073C19.8286 7.19813 20.0347 7.08448 20.2596 6.97082C20.7282 6.72457 21.1967 6.49726 21.6465 6.30784L21.4216 6.04265L21.3841 6.00476L21.103 5.68274L19.5475 3.7885L19.5662 2.42465L19.5475 2.40571L20.6532 2.06474L22.7522 3.14446Z" fill="#2F83C1"/>
<path d="M40.8748 34.9676C40.8748 34.9676 40.9123 34.6835 40.7623 34.4183C40.7623 34.3994 40.7436 34.3804 40.7436 34.3804L40.7248 34.3615L40.6686 34.3047C40.6311 34.2668 40.5937 34.2289 40.5374 34.191C40.5187 34.1721 40.4812 34.1531 40.4437 34.1342C40.35 34.0963 40.2563 34.0584 40.1251 34.0395C40.0314 34.0205 39.9377 34.0205 39.8253 34.0205H39.6753V34.0584C39.6753 34.0774 39.6941 34.0963 39.6941 34.1342C39.6941 34.1531 39.6941 34.1721 39.7128 34.1721C39.7316 34.2289 39.7503 34.3236 39.7691 34.3994C39.7691 34.3994 39.7691 34.4183 39.7503 34.4562V34.4751C39.6941 34.6077 39.5442 34.9108 39.2068 35.2897C39.1506 35.3654 39.0944 35.4223 39.0194 35.498C38.0824 36.483 36.0583 37.8658 31.7854 38.6425C30.3423 38.8508 28.9929 38.8698 27.8685 38.7182C26.1818 38.5099 24.9261 37.9605 24.3264 37.2218C24.2702 37.165 24.2327 37.0892 24.1765 37.0324C24.139 36.9755 24.1203 36.9377 24.0828 36.8808C24.064 36.8619 24.064 36.8429 24.0453 36.824C23.8017 36.3694 23.6892 35.8769 23.6892 35.4033C23.6892 34.8161 23.8766 34.2668 24.1765 33.85C24.4201 33.5091 24.7387 33.2439 25.1323 33.1302C25.3197 33.0734 25.5259 33.0355 25.732 33.0545C25.7695 33.0545 25.8257 33.0545 25.9007 33.0734C26.0319 33.0923 26.238 33.1113 26.4816 33.1492C26.5004 33.1492 26.5379 33.1492 26.5566 33.1681C27.3625 33.2628 28.6369 33.3954 30.1736 33.3007C32.9848 33.1302 36.6768 32.2399 40.0314 29.1713V29.1523C40.0502 28.8871 40.0127 28.4325 39.6941 28.0726C39.6379 28.0158 39.5816 27.959 39.5067 27.9021C39.4692 27.8643 39.413 27.8453 39.3755 27.8074C39.3193 27.7885 39.2818 27.7506 39.2443 27.7317L39.0756 27.618V27.5991C39.0569 27.5612 39.0382 27.5233 39.0007 27.4854C38.1386 26.1594 36.9392 25.3828 36.4519 25.0229C36.227 24.8524 36.0771 24.7766 36.0771 24.7766C35.0463 24.1326 34.8964 23.9242 34.9901 22.2005C35.0276 21.5754 35.0838 20.7609 35.1588 19.6433C35.1588 19.4917 35.1775 19.3591 35.1775 19.2265V19.1318V18.6772C35.1775 18.5825 35.1588 18.4878 35.1588 18.412C35.1588 18.3741 35.1588 18.3362 35.14 18.2983C35.1213 18.2036 35.1213 18.1089 35.1025 18.0142C35.1025 17.9763 35.0838 17.9195 35.0838 17.8816C35.0838 17.8248 35.065 17.7869 35.0463 17.7301C35.0276 17.6922 35.0276 17.6354 35.0088 17.5975C34.9901 17.5407 34.9713 17.4838 34.9713 17.427C34.9713 17.4081 34.9526 17.3891 34.9526 17.3702C34.9526 17.3512 34.9339 17.3323 34.9339 17.3133V17.2944L34.9151 17.2376C34.8964 17.1997 34.8776 17.1618 34.8776 17.1239V17.105L34.8589 17.0671L34.8402 17.0292C34.8027 16.9534 34.7839 16.8777 34.7464 16.8208L34.7277 16.764C34.6902 16.7072 34.6527 16.6314 34.6153 16.5746L34.5965 16.5556L34.5778 16.5367C34.5403 16.4988 34.5216 16.4609 34.4841 16.4231L34.4466 16.3662C34.4091 16.3094 34.3716 16.2715 34.3341 16.2336L34.1842 16.0821C34.128 16.0442 34.0718 16.0063 34.0155 15.9874C33.9968 15.9684 33.9781 15.9684 33.9593 15.9684L33.8469 15.9116C33.8281 15.9116 33.8094 15.8927 33.7907 15.8927C33.7532 15.8737 33.7157 15.8737 33.697 15.8548C33.6782 15.8548 33.6595 15.8358 33.622 15.8358C33.5845 15.8358 33.5658 15.8169 33.5283 15.8169H33.116C33.0972 15.8169 33.0785 15.8169 33.0598 15.8358C33.041 15.8358 33.0223 15.8358 33.0035 15.8548C32.966 15.8548 32.9286 15.8737 32.8723 15.8927H32.8349C32.7224 15.9305 32.6287 15.9684 32.5163 16.0063L32.4788 16.0253C32.4413 16.0442 32.4038 16.0631 32.3476 16.0821L32.2914 16.101L32.1789 16.1579L32.1227 16.1957L32.0103 16.2526L31.954 16.2905C31.9165 16.3094 31.8791 16.3473 31.8416 16.3662L31.8041 16.3852C31.7666 16.4231 31.7104 16.442 31.6729 16.4799L31.6542 16.4988C31.598 16.5367 31.5605 16.5746 31.5042 16.5935C31.4105 16.6504 31.3168 16.7261 31.2231 16.783C31.1482 16.8398 31.0732 16.8966 30.9795 16.9534L30.942 16.9724C30.8671 17.0292 30.7733 17.086 30.6984 17.1239L30.6609 17.1429C30.5859 17.1997 30.4922 17.2376 30.4173 17.2944L30.3798 17.3133C30.3048 17.3702 30.2111 17.4081 30.1174 17.4459L30.0799 17.4649C29.9862 17.5028 29.9113 17.5407 29.8176 17.5785L29.7801 17.5975C29.6864 17.6354 29.5927 17.6543 29.499 17.6922H29.4802C29.3865 17.7111 29.2741 17.7301 29.1804 17.749C29.0117 17.768 28.8243 17.7869 28.6556 17.7869C28.3745 17.7869 28.0934 17.768 27.7935 17.7301L27.5124 17.6732C27.4749 17.6732 27.4374 17.6543 27.4187 17.6543C27.1751 17.5975 26.9127 17.5407 26.6691 17.4838C26.5566 17.4649 26.4629 17.427 26.3505 17.4081C26.1818 17.3702 26.0131 17.3323 25.8257 17.2944C25.7882 17.2944 25.7507 17.2755 25.732 17.2755C25.7133 17.2755 25.6758 17.2565 25.657 17.2565C25.6196 17.2565 25.5821 17.2376 25.5446 17.2376C25.5071 17.2376 25.4696 17.2186 25.4321 17.2186H25.3947C25.3572 17.2186 25.3197 17.1997 25.301 17.1997C25.226 17.1807 25.151 17.1618 25.0573 17.1618C25.0386 17.1618 25.0011 17.1618 24.9824 17.1429C24.9261 17.1429 24.8699 17.1239 24.8137 17.1239C24.7762 17.1239 24.7575 17.1239 24.72 17.105C24.6638 17.105 24.6263 17.086 24.5701 17.086H23.708C23.6143 17.086 23.5393 17.105 23.4456 17.105H23.3706C23.3144 17.105 23.2582 17.1239 23.202 17.1239H23.1832C23.1457 17.1239 23.127 17.1429 23.0895 17.1429C23.0333 17.1618 22.9771 17.1618 22.9208 17.1807C22.8834 17.1807 22.8459 17.1997 22.8271 17.1997C22.7709 17.2186 22.7147 17.2376 22.6585 17.2376C22.621 17.2376 22.6022 17.2565 22.5648 17.2755C22.5085 17.2944 22.4336 17.3133 22.3774 17.3323C22.3399 17.3512 22.3211 17.3512 22.3024 17.3702C22.2087 17.4081 22.115 17.4459 22.04 17.4838C21.3279 17.9006 20.7094 18.4688 20.2409 19.1129C20.0722 19.3402 19.9223 19.5675 19.7911 19.7948C19.6412 20.041 19.5287 20.3062 19.4163 20.5714C19.3788 20.6472 19.36 20.723 19.3226 20.7987C19.2851 20.9313 19.2289 21.0639 19.1914 21.1965C19.1914 21.2155 19.1914 21.2344 19.1726 21.2344C19.1352 21.386 19.0977 21.5375 19.0602 21.708C19.0227 21.8785 19.004 22.03 18.9852 22.2005C18.9665 22.2952 18.9665 22.371 18.9665 22.4657C18.9477 22.7119 18.9477 22.9392 18.9665 23.1855V23.2423C18.9665 23.2991 18.9665 23.356 18.9852 23.4317C19.004 23.6022 19.0227 23.7727 19.0602 23.9432C19.0789 24 19.0977 24.0568 19.0977 24.1326C19.1164 24.1894 19.1164 24.2463 19.1352 24.3031C19.2476 24.7388 19.4163 25.1365 19.6224 25.4775C20.3908 26.8224 21.6652 27.6369 22.6022 28.0726C22.9583 28.2242 23.3331 28.3757 23.7267 28.5083L23.6892 28.5462C23.6143 28.5651 23.5393 28.5841 23.4456 28.603C23.3144 28.6409 23.1457 28.6977 22.9771 28.7545C22.7897 28.8114 22.5648 28.9061 22.3399 29.0008C21.7402 29.247 21.0655 29.6069 20.4658 30.0995C20.3908 30.1563 20.3158 30.232 20.2409 30.2889C20.1097 30.4025 19.9972 30.5162 19.8848 30.6488L19.8473 30.6867L19.7911 30.7435C19.7536 30.8003 19.6974 30.8382 19.6599 30.895L19.6037 30.9519C19.5475 31.0276 19.4912 31.1034 19.4538 31.1792C19.3975 31.2549 19.36 31.3307 19.3038 31.4065C18.9477 32.0316 18.7416 32.7893 18.7978 33.6985V33.6606C18.7978 33.6417 18.7978 33.6227 18.8166 33.6038V33.5849C18.8166 33.5659 18.8353 33.547 18.8353 33.5091V33.4901C18.8353 33.4712 18.854 33.4333 18.854 33.3954C18.854 33.3575 18.8728 33.3386 18.8915 33.3007V33.2818C18.9103 33.2439 18.9103 33.206 18.929 33.1681V33.1492C18.9477 33.1113 18.9477 33.0734 18.9665 33.0355V33.0166C18.9852 32.9787 19.004 32.9408 19.0227 32.884L19.0414 32.865C19.0602 32.8272 19.0789 32.7703 19.1164 32.7324C19.1539 32.6567 19.1914 32.5998 19.2289 32.5241C19.2476 32.5051 19.2663 32.4672 19.2851 32.4483L19.3038 32.4294L19.4163 32.2589C19.4537 32.221 19.4912 32.1642 19.5287 32.1263L19.5662 32.0884C19.6037 32.0505 19.6224 32.0126 19.6599 31.9937L19.6974 31.9558C19.7349 31.9179 19.7911 31.88 19.8286 31.8232C19.8286 31.8232 19.0227 33.6796 19.3788 35.1381V35.1192V35.0813V35.0245V34.9487V34.854C19.3788 34.8161 19.3788 34.7782 19.3975 34.7403C19.3975 34.7024 19.3975 34.6646 19.4163 34.6267V34.6077C19.4163 34.5699 19.435 34.513 19.435 34.4751V34.4373C19.4537 34.3804 19.4538 34.3425 19.4725 34.2857V34.2668C19.4912 34.2099 19.51 34.1531 19.51 34.1152C19.51 34.0963 19.5287 34.0774 19.5287 34.0584L19.5475 34.0205C19.5662 33.9826 19.5849 33.9258 19.6037 33.8879C19.6224 33.8311 19.6599 33.7743 19.6974 33.7174C19.6974 33.6985 19.7161 33.6796 19.7161 33.6796L19.8286 33.5091C19.8286 33.5091 19.7911 33.9637 19.7911 34.513C19.7911 34.6077 19.7911 34.6835 19.8098 34.7782C19.8098 34.835 19.8098 34.8919 19.8286 34.9487C19.8098 35.3275 19.8098 35.7064 19.8473 36.1042C19.9035 36.7672 20.0722 37.487 20.3533 38.2257C20.3533 38.2257 20.0909 37.3733 20.4658 36.5209L20.5782 36.7482C20.6157 36.9945 20.6532 37.3544 20.7281 37.7522C20.8031 38.4152 21.103 40.4041 22.4523 41.7869C22.4523 41.7869 21.9463 41.1239 22.0213 40.2715C22.0775 40.3852 22.1337 40.4799 22.1712 40.5746C22.3961 41.0103 22.8459 41.8058 23.3519 42.3741C23.3519 42.3741 22.9583 41.5975 23.052 41.427C23.052 41.427 24.3639 43.075 24.7762 43.2265L24.2327 42.3173L24.214 42.2983C26.1068 43.7001 28.7306 44.2115 31.954 43.3023C32.5163 43.1508 33.0785 42.9424 33.6782 42.6961C34.0343 42.5446 34.3904 42.3552 34.7464 42.1658L34.8027 42.1279C35.0463 41.9953 35.2899 41.8437 35.5336 41.6922C35.721 41.5785 35.9084 41.4459 36.0771 41.3323C36.3769 41.1239 36.6768 40.8966 36.9766 40.6504C36.9954 40.6314 37.0141 40.6125 37.0329 40.6125C37.314 40.3662 37.5951 40.101 37.8387 39.8358C38.1761 39.4759 38.4759 39.116 38.7383 38.7561L38.757 38.7372C38.832 38.6425 38.8882 38.5667 38.9444 38.472L38.9632 38.453C38.9819 38.4152 39.0007 38.3962 39.0194 38.3583C39.1131 38.2257 39.1881 38.1121 39.2818 37.9795C39.3005 37.9416 39.3193 37.9227 39.338 37.8848C39.3755 37.809 39.413 37.7522 39.4692 37.6764C39.5067 37.6196 39.5254 37.5817 39.5629 37.5249C39.6004 37.468 39.6379 37.4112 39.6566 37.3544C39.7128 37.2597 39.7691 37.146 39.8253 37.0513L39.8815 36.9377L39.9939 36.7103L40.0502 36.5967L40.0689 36.5588C40.1064 36.4641 40.1626 36.3694 40.2001 36.2747V36.2557C40.3688 36.1042 40.4812 35.9526 40.5937 35.8201C40.6124 35.8011 40.6311 35.7822 40.6311 35.7632C40.7998 35.517 40.8748 35.2328 40.8748 34.9676ZM10.5705 30.1373C10.5143 30.1563 10.458 30.232 10.3831 30.3268C10.3643 30.3646 10.3269 30.4025 10.3081 30.4594C10.1394 30.7814 9.98952 31.236 9.98952 31.236C10.0083 31.0845 10.027 30.9329 10.027 30.7814V30.7245C10.0457 30.573 10.0645 30.4025 10.0832 30.251V30.1942C10.102 30.0047 10.1394 29.8343 10.1769 29.6638C10.1769 29.6448 10.1769 29.6259 10.1957 29.588V29.5691C10.1957 29.5501 10.1957 29.5312 10.2144 29.5122C10.2144 29.4744 10.2332 29.4554 10.2332 29.4175C10.2519 29.2849 10.2894 29.1523 10.3081 29.0197C10.3269 28.9061 10.3456 28.7924 10.3643 28.6977V28.6598C10.3643 28.6409 10.3643 28.6219 10.3831 28.6219V28.5841C10.3831 28.5651 10.4018 28.5272 10.4018 28.5083C10.4018 28.4893 10.4018 28.4704 10.4206 28.4515C10.4206 28.4136 10.4393 28.3757 10.4393 28.3568C10.4393 28.3378 10.458 28.2999 10.458 28.281C10.458 28.2431 10.4768 28.2052 10.4768 28.1863C10.4768 28.1673 10.4768 28.1484 10.4955 28.1294C10.4955 28.1105 10.4955 28.0916 10.5143 28.0916C10.5143 28.0537 10.533 28.0347 10.533 28.0158V27.959L10.4955 27.9968C10.458 28.0158 10.4393 28.0537 10.4018 28.0726L10.3643 28.1105C10.3269 28.1484 10.2894 28.1863 10.2706 28.2242L10.2519 28.2431L10.1394 28.4136L10.1207 28.4325C10.1207 28.4515 10.102 28.4515 10.102 28.4704L10.0457 28.5841V28.6219C10.027 28.6788 9.98952 28.7356 9.97078 28.7924C9.91456 28.944 9.85833 29.0955 9.82085 29.2281C9.80211 29.266 9.80211 29.3228 9.78337 29.3418C9.76463 29.4175 9.74589 29.4933 9.74589 29.5122C9.74589 29.4554 9.74589 29.4175 9.76463 29.3607C9.76463 29.266 9.78337 29.1523 9.78337 29.0576C9.78337 28.9818 9.80211 28.8871 9.82085 28.8114C9.82085 28.7924 9.82085 28.7545 9.83959 28.7356C9.83959 28.6977 9.85833 28.6598 9.85833 28.6219C9.85833 28.5841 9.87707 28.5462 9.87707 28.5083V28.4515C9.87707 28.4136 9.89582 28.3568 9.89582 28.3189V28.2242V28.1863C9.89582 28.1673 9.89582 28.1484 9.91456 28.1294C9.9333 28.0726 9.95204 27.9968 9.95204 27.94V27.9211C9.97078 27.8832 9.97078 27.8264 9.98952 27.7885V27.7695C10.0083 27.6748 10.0457 27.5801 10.0645 27.4854V27.4475C10.0645 27.4286 10.0645 27.4096 10.0832 27.3907C10.1207 27.2392 10.1769 27.0876 10.2144 26.955V26.9361C10.2519 26.8224 10.3081 26.6898 10.3456 26.5762V26.5572C10.3643 26.5004 10.3831 26.4625 10.4018 26.4057C10.4393 26.3299 10.458 26.2541 10.4955 26.1784C10.4955 26.1594 10.5143 26.1216 10.5518 26.0458C10.5705 26.0268 10.5705 25.989 10.5892 25.97C10.608 25.9321 10.6267 25.8942 10.6455 25.8374L10.6642 25.7995C10.6455 25.7806 10.608 25.7806 10.5892 25.7616H10.5705L10.533 25.7427C10.3643 25.6669 10.1769 25.5912 9.98952 25.5343H9.95204C9.82085 25.4965 9.7084 25.4775 9.57722 25.4586C9.50225 25.4586 9.42729 25.4396 9.35232 25.4396H9.16491C9.07121 25.4396 8.9775 25.4586 8.8838 25.4586C8.84632 25.4586 8.82758 25.4586 8.79009 25.4775C8.75261 25.4775 8.69639 25.4965 8.65891 25.4965C8.64016 25.4965 8.62142 25.4965 8.60268 25.5154C8.5652 25.5154 8.54646 25.5343 8.50898 25.5343C8.45275 25.5533 8.37779 25.5722 8.32157 25.5912C8.30283 25.5912 8.26534 25.6101 8.2466 25.6101C8.17164 25.648 8.07793 25.6669 8.00297 25.7048C7.96549 25.7238 7.94675 25.7427 7.90926 25.7427L7.79682 25.7995L7.75934 25.8185C7.72185 25.8374 7.68437 25.8564 7.64689 25.8942C7.60941 25.9132 7.57193 25.9321 7.53444 25.97C7.49696 25.989 7.45948 26.0268 7.422 26.0458C7.40326 26.0647 7.36577 26.0837 7.34703 26.1026C7.29081 26.1594 7.21585 26.2163 7.15962 26.2731L7.06592 26.3678C7.00969 26.4246 6.97221 26.4815 6.91599 26.5383L6.89725 26.5572C6.87851 26.5951 6.84102 26.6141 6.82228 26.6519L6.76606 26.7088C6.67235 26.8414 6.57865 26.9929 6.50369 27.1444C6.48494 27.1634 6.48494 27.1823 6.4662 27.2013C6.42872 27.277 6.40998 27.3528 6.3725 27.4286C6.35376 27.4665 6.35376 27.4854 6.33502 27.5233C6.31627 27.5991 6.27879 27.6748 6.26005 27.7695V27.8453C6.24131 27.9021 6.24131 27.959 6.22257 28.0158C6.22257 28.0537 6.22257 28.0726 6.20383 28.1105C6.20383 28.1484 6.20383 28.1673 6.18509 28.2052V28.281C6.18509 28.3757 6.16635 28.4704 6.18509 28.5651C6.18509 28.6409 6.18509 28.7167 6.20383 28.7924V28.8303C6.20383 28.8682 6.22257 28.9061 6.22257 28.944C6.24131 29.0955 6.27879 29.2281 6.31627 29.3796C6.35376 29.4933 6.39124 29.588 6.42872 29.6827C6.50368 29.8721 6.59739 30.0426 6.70984 30.2131C6.93473 30.5541 7.23459 30.8571 7.59067 31.0845C7.77808 31.2171 8.00297 31.3118 8.22786 31.3875C8.43401 31.4633 8.65891 31.5201 8.90254 31.5391C8.95876 31.5391 9.01499 31.558 9.05247 31.558H9.2961C9.37107 31.558 9.44603 31.5391 9.52099 31.5391C9.55848 31.5391 9.6147 31.5391 9.65218 31.5201C9.76463 31.5012 9.85833 31.4822 9.97078 31.4633H9.98952C10.027 31.4444 10.0645 31.4444 10.1207 31.4254C10.2519 31.3875 10.3831 31.3307 10.4955 31.2739L10.5143 31.2549C10.5518 31.236 10.5892 31.2171 10.608 31.2171C10.5518 30.895 10.4955 30.5541 10.4768 30.2131C10.5705 30.1752 10.5705 30.1563 10.5705 30.1373Z" fill="#FCE9CD"/>
<path d="M39.7317 34.191C39.7317 34.1721 39.7317 34.1531 39.7129 34.1531C39.6942 34.1152 39.6942 34.0963 39.6942 34.0773C39.6005 33.7743 39.488 33.547 39.3756 33.3765C39.2444 33.1681 39.132 33.0545 39.132 33.0545L39.1882 32.8271C39.2069 32.7324 39.2257 32.6377 39.2257 32.543C39.3006 31.8611 39.132 31.3307 38.982 31.0276C38.9633 30.9708 38.9445 30.9329 38.9258 30.895C38.8134 30.9708 38.7197 31.0466 38.6072 31.1223C36.5832 32.5051 34.3155 33.3954 31.8604 33.7743C30.1737 34.0395 28.3933 34.0584 26.538 33.8311L26.5755 33.85C26.5755 33.85 25.451 34.0016 25.1511 35.0813L25.1699 35.1002L25.0762 35.82C25.1137 36.805 25.5447 37.4112 26.0507 37.7332C26.5755 37.9416 27.2127 38.0931 27.9248 38.1878C29.143 38.3394 30.5673 38.3015 31.9916 38.0742C33.9032 37.809 36.6019 36.7861 38.5322 35.4601C38.9633 35.1571 39.3756 34.835 39.7129 34.513L39.7317 34.4941L39.7504 34.4751C39.7504 34.3425 39.7317 34.2668 39.7317 34.191Z" fill="white"/>
<path d="M36.0773 24.8334C35.0465 24.1894 34.8966 23.981 34.9903 22.2573C35.0278 21.6322 35.084 20.8176 35.1589 19.7C35.1589 19.5485 35.1777 19.4159 35.1777 19.2833V19.1886V18.734C35.1777 18.6393 35.1589 18.5446 35.1589 18.4688C35.1589 18.4309 35.1589 18.393 35.1402 18.3551C35.1215 18.2604 35.1215 18.1657 35.1027 18.071C35.1027 18.0331 35.084 17.9763 35.084 17.9384C35.084 17.8816 35.0652 17.8437 35.0465 17.7869C35.0278 17.749 35.0278 17.6921 35.009 17.6543C34.8591 17.427 34.6904 17.2375 34.4843 17.0671L34.4468 17.0292L34.4093 17.0102H34.3906C34.3531 16.9913 34.3343 16.9723 34.2969 16.9534C34.2594 16.9345 34.2219 16.9155 34.2032 16.8966C33.9033 16.7071 33.5472 16.5935 33.1911 16.5367C32.985 16.4988 32.7788 16.4988 32.5727 16.4988C32.479 16.4988 32.3665 16.5177 32.2728 16.5177C32.0104 16.5556 31.7481 16.6124 31.467 16.6882C31.3733 16.745 31.2795 16.8208 31.1858 16.8776C31.1109 16.9345 31.0359 16.9913 30.9422 17.0481L30.9047 17.0671C30.8298 17.1239 30.7361 17.1807 30.6611 17.2186L30.6236 17.2375C30.5486 17.2944 30.4549 17.3322 30.38 17.3891L30.3425 17.408C30.2675 17.4648 30.1738 17.5027 30.0801 17.5406L30.0426 17.5596C29.9489 17.5974 29.874 17.6353 29.7803 17.6732L29.7428 17.6921C29.6491 17.73 29.5554 17.749 29.4617 17.7869H29.4429C29.3492 17.8058 29.2368 17.8247 29.1431 17.8437C28.9744 17.8626 28.787 17.8816 28.6183 17.8816C28.3372 17.8816 28.0561 17.8626 27.7562 17.8247L27.4751 17.7679C27.4376 17.7679 27.4002 17.749 27.3814 17.749C27.1378 17.6921 26.8754 17.6353 26.6318 17.5785C26.5193 17.5596 26.4256 17.5217 26.3132 17.5027C26.1445 17.4648 25.9758 17.427 25.7884 17.3891C25.7509 17.3891 25.7135 17.3701 25.6947 17.3701C25.5448 17.3701 25.3949 17.3891 25.2637 17.408H25.2262C24.7951 17.4648 24.3828 17.5596 23.9518 17.7111C23.9331 17.7111 23.9143 17.73 23.8768 17.73C23.8019 17.749 23.7456 17.7869 23.6707 17.8058C23.577 17.8437 23.502 17.8816 23.4083 17.9195C22.7899 18.1847 22.2089 18.5635 21.6466 19.0371C21.4218 19.2265 21.2156 19.4348 21.0095 19.6432C20.7096 19.9652 20.4472 20.3062 20.2036 20.6661C20.1848 20.685 20.1848 20.704 20.1661 20.7229C20.0349 20.9124 19.9225 21.1207 19.8288 21.3101C19.7913 21.3859 19.7538 21.4617 19.7163 21.5185V21.5375C19.6039 21.7837 19.5102 22.011 19.4352 22.2573C19.4352 22.2762 19.4352 22.2951 19.4165 22.2951C19.3977 22.333 19.3977 22.3709 19.379 22.4088C19.3415 22.5225 19.304 22.6361 19.2853 22.7498C19.2478 22.8634 19.2291 22.9771 19.2103 23.1097C19.2103 23.1286 19.1916 23.1665 19.1916 23.1854C19.1728 23.2612 19.1728 23.337 19.1541 23.3938C19.1166 23.659 19.0979 23.9242 19.0791 24.1894V24.3788C19.1916 24.8145 19.3602 25.2123 19.5664 25.5532C20.3348 26.8981 21.6092 27.7127 22.5462 28.1483C22.9023 28.2999 23.2771 28.4514 23.6707 28.584L23.6894 28.603L23.7082 28.584C23.7644 28.5461 23.8019 28.5083 23.8581 28.4704C23.8768 28.4514 23.8956 28.4514 23.9143 28.4325L24.083 28.3188C24.1017 28.2999 24.1205 28.2999 24.1392 28.2809L24.3079 28.1673C24.3266 28.1483 24.3454 28.1483 24.3641 28.1294C24.4203 28.0915 24.4765 28.0536 24.5515 28.0157C24.5703 27.9968 24.589 27.9968 24.6077 27.9779C24.664 27.94 24.7389 27.9021 24.7951 27.8642C24.8139 27.8453 24.8326 27.8453 24.8514 27.8263C24.9076 27.7884 24.9826 27.7506 25.0388 27.7127C25.0575 27.6937 25.095 27.6937 25.1137 27.6748C25.17 27.6369 25.2449 27.599 25.3012 27.5611C25.3199 27.5422 25.3574 27.5232 25.3761 27.5232C25.4323 27.4854 25.5073 27.4475 25.5823 27.4096C25.6198 27.3906 25.6385 27.3717 25.676 27.3717C25.7509 27.3338 25.8072 27.2959 25.8821 27.277C25.9196 27.2581 25.9384 27.2391 25.9758 27.2391C26.0508 27.2012 26.107 27.1823 26.182 27.1444L26.2944 27.0876C26.3694 27.0497 26.4256 27.0307 26.5006 26.9929C26.5381 26.9739 26.5755 26.955 26.6318 26.936C26.7067 26.9171 26.763 26.8792 26.8379 26.8603C26.8754 26.8413 26.9316 26.8224 26.9691 26.8034C27.0441 26.7845 27.1003 26.7466 27.1753 26.7277C27.2315 26.7087 27.269 26.6898 27.3252 26.6708C27.4002 26.6519 27.4564 26.614 27.5313 26.5951L27.7 26.5382C27.7562 26.5193 27.8312 26.5004 27.8874 26.4625C27.9436 26.4435 28.0186 26.4246 28.0748 26.4056C28.1311 26.3867 28.206 26.3678 28.2622 26.3488C28.3372 26.3299 28.4122 26.3109 28.4684 26.292C28.5246 26.273 28.5808 26.2541 28.6558 26.2352C28.7308 26.2162 28.8057 26.1973 28.8994 26.1594C28.9369 26.1405 28.9744 26.1405 29.0119 26.1215C29.3117 25.3449 30.2301 23.4127 31.7856 23.2044C31.9542 23.1854 32.1042 23.1665 32.2541 23.1665H32.3665C32.3478 23.0528 32.329 22.9392 32.329 22.8066C32.2728 21.9731 32.5352 21.2723 32.8913 21.2533C33.1724 21.2344 33.3973 21.6511 33.4348 21.7837C33.5472 22.03 33.6222 22.352 33.6409 22.7119C33.6597 23.0339 33.6222 23.337 33.566 23.6022C33.6034 23.6401 33.6222 23.6779 33.6597 23.6969C34.0157 24.1515 34.072 24.7577 34.0532 25.2123C34.1844 25.1933 34.3343 25.1933 34.4843 25.1744C34.5218 25.1744 34.5592 25.1744 34.5967 25.1554H34.6717C34.8403 25.1365 35.0278 25.1176 35.2152 25.1176C35.6275 25.0797 36.0398 25.0607 36.4708 25.0418C36.2272 24.9092 36.0773 24.8334 36.0773 24.8334ZM39.9941 36.5019C39.3195 37.1081 38.6073 37.6006 37.8951 37.9984C37.5391 38.1878 37.183 38.3583 36.8456 38.5098C36.0773 38.8508 35.3464 39.0781 34.6904 39.2486C33.2474 39.6085 32.2541 39.6085 32.2541 39.6085C33.0412 40.0442 34.0345 40.0442 34.7092 39.9873C35.1777 39.9495 35.4963 39.8547 35.4963 39.8547C35.4775 40.1389 35.4401 40.4041 35.4026 40.6693C35.3464 40.9534 35.2714 41.1996 35.1777 41.427V41.4459C35.0652 41.73 34.9153 41.9763 34.7654 42.2036C34.7466 42.2225 34.7279 42.2604 34.7092 42.2794L34.7654 42.2415C35.009 42.1089 35.2527 41.9573 35.4963 41.8058C35.6837 41.6922 35.8711 41.5596 36.0398 41.4459C36.3396 41.2375 36.6395 41.0102 36.9393 40.764C36.9581 40.745 36.9768 40.7261 36.9956 40.7261C37.2767 40.4798 37.5578 40.2146 37.8014 39.9494C38.1388 39.5895 38.4386 39.2296 38.701 38.8697L38.7197 38.8508C38.7947 38.7561 38.8509 38.6803 38.9072 38.5856L38.9259 38.5667C38.9446 38.5288 38.9634 38.5098 38.9821 38.4719C39.0758 38.3393 39.1508 38.2257 39.2445 38.0931C39.2632 38.0552 39.282 38.0363 39.3007 37.9984C39.3382 37.9226 39.3757 37.8658 39.4319 37.79C39.4694 37.7332 39.4881 37.6953 39.5256 37.6385C39.5631 37.5817 39.6006 37.5248 39.6193 37.468C39.6755 37.3733 39.7318 37.2596 39.788 37.1649L39.8442 37.0513L39.9567 36.824L40.0129 36.7103L40.0316 36.6724C40.0691 36.5777 40.1253 36.483 40.1628 36.3883C40.0878 36.4072 40.0504 36.4451 39.9941 36.5019ZM22.9023 28.8682C22.7149 28.925 22.49 29.0197 22.2651 29.1144C21.6654 29.3607 20.9907 29.7206 20.391 30.2131C20.316 30.2699 20.2411 30.3457 20.1661 30.4025C20.0349 30.5161 19.9225 30.6298 19.81 30.7624L19.7725 30.8003L19.7163 30.8571C19.6788 30.9139 19.6226 30.9518 19.5851 31.0086L19.5289 31.0655C19.4727 31.1412 19.4165 31.217 19.379 31.2928C19.3228 31.3685 19.2853 31.4443 19.2291 31.5201C18.873 32.1452 18.6668 32.9029 18.723 33.8121V33.7742C18.723 33.7553 18.723 33.7363 18.7418 33.7174V33.6985C18.7418 33.6795 18.7605 33.6606 18.7605 33.6227V33.6038C18.7605 33.5848 18.7793 33.5469 18.7793 33.509C18.7793 33.4712 18.798 33.4522 18.8168 33.4143V33.3954C18.8355 33.3575 18.8355 33.3196 18.8542 33.2817V33.2628C18.873 33.2249 18.873 33.187 18.8917 33.1491V33.1302C18.9105 33.0923 18.9292 33.0544 18.9479 32.9976L18.9667 32.9787C18.9854 32.9408 19.0042 32.8839 19.0416 32.8461C19.0791 32.7703 19.1166 32.7135 19.1541 32.6377C19.1728 32.6187 19.1916 32.5809 19.2103 32.5619L19.2291 32.543L19.3415 32.3725C19.379 32.3346 19.4165 32.2778 19.4539 32.2399L19.4914 32.202C19.5289 32.1641 19.5477 32.1262 19.5851 32.1073L19.6226 32.0694C19.6601 32.0315 19.7163 31.9937 19.7538 31.9368C19.7538 31.9368 18.9479 33.7932 19.304 35.2517V35.2328V35.1949V35.1381V35.0623V34.9676C19.304 34.9297 19.304 34.8918 19.3228 34.8539C19.3228 34.8161 19.3228 34.7782 19.3415 34.7403V34.7214C19.3415 34.6835 19.3602 34.6266 19.3602 34.5888V34.5509C19.379 34.494 19.379 34.4562 19.3977 34.3993V34.3804C19.4165 34.3236 19.4352 34.2667 19.4352 34.2288C19.4352 34.2099 19.4539 34.191 19.4539 34.172L19.4727 34.1341C19.4914 34.0963 19.5102 34.0394 19.5289 34.0015C19.5477 33.9447 19.5851 33.8879 19.6226 33.8311C19.6226 33.8121 19.6414 33.7932 19.6414 33.7932L19.7538 33.6227C19.7538 33.6227 19.7163 34.0773 19.7163 34.6266C19.7163 34.7214 19.7163 34.7971 19.7351 34.8918C19.7351 34.9487 19.7351 35.0055 19.7538 35.0623C19.7913 34.4751 19.9037 33.9258 20.0537 33.4143C20.0911 33.2817 20.1474 33.1302 20.1848 32.9976C20.1848 32.9787 20.2036 32.9597 20.2036 32.9408C20.2598 32.8082 20.2973 32.6945 20.3535 32.5619C20.3723 32.543 20.3723 32.524 20.391 32.4862C20.4472 32.3725 20.5034 32.2399 20.5597 32.1262C20.5784 32.1073 20.5784 32.0884 20.5784 32.0694C20.7096 31.8232 20.8408 31.5959 20.972 31.3875C20.9907 31.3685 20.9907 31.3496 21.0095 31.3307C21.0657 31.2549 21.1219 31.1791 21.1781 31.0844C21.1969 31.0655 21.1969 31.0465 21.2156 31.0276C21.2343 31.0086 21.2343 30.9897 21.2531 30.9708C21.3281 30.876 21.3843 30.7813 21.4592 30.6866C21.478 30.6677 21.478 30.6487 21.4967 30.6487C21.5717 30.554 21.6466 30.4593 21.7216 30.3835C21.8153 30.2699 21.909 30.1752 22.0027 30.0615C22.0777 29.9858 22.1339 29.91 22.2089 29.8532L22.2838 29.7774C22.4338 29.6259 22.5837 29.4743 22.7336 29.3417C23.1459 28.9629 23.4833 28.7166 23.5957 28.6408C23.5208 28.6598 23.4458 28.6787 23.3521 28.6977C23.2396 28.7545 23.0897 28.8113 22.9023 28.8682Z" fill="#F2D2AC"/>
<path d="M33.6967 24.7577C33.6967 24.7577 33.6967 24.7198 33.678 24.644C33.603 24.3788 33.3406 23.7348 32.3099 23.8295C31.2229 23.9431 30.8481 24.8334 30.7544 25.1365C30.7356 25.1933 30.7356 25.2312 30.7356 25.2312L30.7731 25.2502C30.9043 25.1365 31.1667 25.1365 31.4103 25.307C31.5227 25.3828 31.5977 25.4585 31.6727 25.5532C31.7664 25.7048 31.7851 25.8563 31.7289 25.97L31.6727 26.0268C31.6727 26.0268 31.7102 26.0458 31.7851 26.0647C32.085 26.1594 32.9283 26.3299 33.3781 25.7427C33.3969 25.7048 33.4156 25.6858 33.4343 25.648C33.3406 25.6101 33.3031 25.4775 33.3031 25.307C33.3031 25.2312 33.3219 25.1555 33.3406 25.0607C33.3969 24.8334 33.5655 24.7008 33.6967 24.7577ZM28.2805 32.865C27.5684 33.0165 26.9499 33.1302 26.4814 33.206C26.5001 33.206 26.5376 33.206 26.5564 33.2249C27.3622 33.3196 28.6366 33.4522 30.1734 33.3575C32.9845 33.187 36.6765 32.2967 40.0312 29.2281V29.2091C40.0499 28.9439 40.0124 28.4893 39.6938 28.1294C39.6376 28.0726 39.5814 28.0158 39.5064 27.9589C39.4877 27.9589 39.4877 27.94 39.469 27.94C39.3752 27.8832 39.3003 27.8453 39.2253 27.7885L39.0566 27.6748V27.6559C38.8505 27.9589 38.6069 28.2431 38.3445 28.5083C38.2508 28.603 38.1571 28.6977 38.0446 28.7924C37.1263 29.6259 35.9269 30.3457 34.6338 30.9139C32.4973 31.8611 30.0984 32.4862 28.2805 32.865ZM10.514 27.921C10.4765 27.94 10.4578 27.9779 10.4203 27.9968L10.3828 28.0347C10.3454 28.0726 10.3079 28.1105 10.2891 28.1484L10.2704 28.1673L10.1579 28.3378L10.1392 28.3567C10.1392 28.3757 10.1205 28.3757 10.1205 28.3946L10.0642 28.5083V28.5461C10.0455 28.603 10.008 28.6598 9.98928 28.7166C9.93306 28.8682 9.87683 29.0197 9.83935 29.1523C9.82061 29.1902 9.82061 29.247 9.80187 29.266C9.78313 29.3417 9.76439 29.4175 9.76439 29.4364C9.76439 29.3796 9.76439 29.3417 9.78313 29.2849C9.78313 29.1902 9.80187 29.0765 9.80187 28.9818C9.80187 28.9061 9.82061 28.8113 9.83935 28.7356C9.83935 28.7166 9.83935 28.6787 9.85809 28.6598C9.85809 28.6219 9.87683 28.584 9.87683 28.5461C9.87683 28.5083 9.89557 28.4704 9.89557 28.4325V28.3757C9.89557 28.3378 9.91432 28.281 9.91432 28.2431V28.1484V28.1105C9.91432 28.0915 9.91431 28.0726 9.93306 28.0536C9.9518 27.9968 9.97054 27.921 9.97054 27.8642V27.8453C9.98928 27.8074 9.98928 27.7506 10.008 27.7127V27.6937C10.0268 27.599 10.0642 27.5043 10.083 27.4096V27.3717C10.083 27.3528 10.083 27.3338 10.1017 27.3149C10.1392 27.1634 10.1954 27.0118 10.2329 26.8792V26.8603C10.2704 26.7466 10.3266 26.614 10.3641 26.5004V26.4814C10.3828 26.4246 10.4016 26.3867 10.4203 26.3299C10.4578 26.2541 10.4765 26.1783 10.514 26.1026C10.514 26.0836 10.5328 26.0458 10.5703 25.97C10.589 25.951 10.589 25.9132 10.6077 25.8942C10.6265 25.8563 10.6452 25.8184 10.664 25.7616L10.6827 25.7237C10.664 25.7048 10.6265 25.7048 10.6077 25.6858H10.589L10.5515 25.6669C10.3828 25.5911 10.1954 25.5154 10.008 25.4585H9.97054C9.83935 25.4207 9.7269 25.4017 9.59572 25.3828C9.52075 25.3828 9.44579 25.3638 9.37082 25.3638H9.18341C9.08971 25.3638 8.996 25.3828 8.9023 25.3828C8.86482 25.3828 8.84608 25.3828 8.80859 25.4017C8.77111 25.4017 8.71489 25.4207 8.67741 25.4207C8.65866 25.4207 8.63992 25.4207 8.62118 25.4396C8.5837 25.4396 8.56496 25.4585 8.52748 25.4585C8.47125 25.4775 8.39629 25.4964 8.34007 25.5154C8.32133 25.5154 8.28384 25.5343 8.2651 25.5343C8.19014 25.5722 8.09643 25.5911 8.02147 25.629C7.98399 25.648 7.96525 25.6669 7.92776 25.6669L7.81532 25.7237L7.77784 25.7427C7.74035 25.7616 7.70287 25.7806 7.66539 25.8184C7.62791 25.8374 7.59042 25.8563 7.55294 25.8942C7.51546 25.9132 7.47798 25.951 7.4405 25.97C7.42176 25.9889 7.38427 26.0079 7.36553 26.0268C7.30931 26.0836 7.23434 26.1405 7.17812 26.1973L7.08442 26.292C7.02819 26.3488 6.99071 26.4057 6.93449 26.4625L6.91575 26.4814C6.89701 26.5193 6.85952 26.5383 6.84078 26.5761L6.78456 26.633C6.69085 26.7656 6.59715 26.9171 6.52218 27.0686C6.50344 27.0876 6.50344 27.1065 6.4847 27.1255C6.44722 27.2012 6.42848 27.277 6.391 27.3528C6.37226 27.3907 6.37226 27.4096 6.35352 27.4475C6.35352 27.4664 6.37226 27.4854 6.37226 27.5043C6.391 27.5801 6.40974 27.6369 6.42848 27.7127V27.7506C6.44722 27.8074 6.4847 27.8832 6.50344 27.94C6.57841 28.1294 6.65337 28.2999 6.74708 28.4514C6.76582 28.4704 6.76582 28.4893 6.78456 28.5083V28.5272L6.8033 28.5461C6.85952 28.6598 6.91575 28.7545 6.97197 28.8303C7.06568 28.9629 7.14064 29.0576 7.19686 29.1334L7.23434 29.1712C7.23434 29.1902 7.25309 29.1902 7.25309 29.1902L7.29057 29.2281C7.29057 29.1902 7.27183 29.1523 7.27183 29.1334C7.2156 28.8871 7.19686 28.6598 7.19686 28.4135V28.3757C7.19686 28.2241 7.19686 28.0726 7.2156 27.94L7.27183 28.1105C7.29057 28.1862 7.32805 28.262 7.34679 28.3378V28.3757C7.45924 28.6977 7.59042 28.9629 7.72161 29.1712C7.87154 29.4364 8.00273 29.6069 8.09643 29.7206C8.11517 29.7395 8.13392 29.7585 8.13392 29.7774L8.1714 29.8153C8.11517 29.5501 8.07769 29.3038 8.07769 29.0576V28.8113C8.07769 28.6977 8.07769 28.603 8.09643 28.5083C8.13392 28.6787 8.19014 28.8492 8.24636 29.0008V29.0197C8.45251 29.569 8.69615 29.9668 8.86482 30.2131L8.88356 30.232C8.92104 30.2699 8.93978 30.3078 8.95852 30.3457C8.97726 30.3646 8.996 30.3836 8.996 30.4025L9.03349 30.4404L9.05223 30.4593V30.4214C9.05223 30.3836 9.03349 30.3457 9.03349 30.3078C9.01474 30.1752 8.996 30.0426 8.97726 29.9289C8.97726 29.8532 8.95852 29.7585 8.95852 29.6827V29.4554V29.4175V29.266C8.95852 29.1712 8.97726 29.0576 8.97726 28.9629C8.996 29.0197 9.01474 29.0955 9.03349 29.1523C9.05223 29.1902 9.07097 29.247 9.08971 29.2849V29.3038L9.10845 29.3228C9.12719 29.3796 9.14593 29.4364 9.16467 29.4743C9.20216 29.569 9.23964 29.6637 9.29586 29.7395C9.35208 29.8532 9.38957 29.9479 9.44579 30.0237C9.48327 30.0805 9.50201 30.1184 9.52075 30.1562C9.55823 30.2131 9.59572 30.2699 9.61446 30.3078C9.65194 30.3457 9.67068 30.3836 9.68942 30.4214L9.70816 30.4404C9.7269 30.4783 9.76439 30.4972 9.78313 30.5351C9.80187 30.554 9.82061 30.573 9.82061 30.5919C9.85809 30.6298 9.87683 30.6677 9.89557 30.6677L9.91432 30.6866V30.6298C9.93306 30.4783 9.9518 30.3078 9.97054 30.1562V30.0994C9.98928 29.91 10.0268 29.7395 10.0642 29.569C10.0642 29.5501 10.0642 29.5311 10.083 29.4933V29.4743C10.083 29.4554 10.083 29.4364 10.1017 29.4175C10.1017 29.3796 10.1205 29.3607 10.1205 29.3228C10.1392 29.1902 10.1767 29.0576 10.1954 28.925C10.2142 28.8113 10.2329 28.6977 10.2517 28.603V28.5651C10.2517 28.5461 10.2517 28.5272 10.2704 28.5272V28.4893C10.2704 28.4704 10.2891 28.4325 10.2891 28.4135C10.2891 28.3946 10.2891 28.3757 10.3079 28.3567C10.3079 28.3188 10.3266 28.281 10.3266 28.262C10.3266 28.2431 10.3454 28.2052 10.3454 28.1862C10.3454 28.1484 10.3641 28.1105 10.3641 28.0915C10.3641 28.0726 10.3641 28.0536 10.3828 28.0347C10.3828 28.0158 10.3828 27.9968 10.4016 27.9968C10.4016 27.9589 10.4203 27.94 10.4203 27.921V27.8642L10.514 27.921ZM33.2282 35.839C33.4906 35.7443 33.7154 35.6685 33.9029 35.5927C34.2589 35.4412 34.4463 35.3275 34.4463 35.2896C34.4276 35.2518 34.2215 35.2707 33.8466 35.3654C33.6592 35.4033 33.4343 35.4412 33.1532 35.5169C33.022 35.5548 32.8721 35.5738 32.7222 35.5927C32.5722 35.6117 32.4036 35.6495 32.2349 35.6685C31.8976 35.7253 31.5227 35.7632 31.1104 35.8011L30.492 35.8579C30.2858 35.8769 30.0609 35.8768 29.8361 35.8958C28.9365 35.9147 27.9432 35.8768 26.9312 35.6874C26.4064 35.5927 25.6755 35.3465 25.1695 35.0623L25.1508 35.0434C25.4506 33.9637 26.5751 33.8121 26.5751 33.8121L26.5376 33.7932H26.4814C26.3127 33.7742 26.1815 33.7553 26.0504 33.7364C25.9567 33.7174 25.8817 33.7174 25.8255 33.6985C25.7692 33.6985 25.713 33.6795 25.6943 33.6795C25.0196 33.6416 24.6448 34.2099 24.5323 34.4562L24.4761 34.5698C24.3824 34.7971 24.3074 35.0434 24.2887 35.3275C24.2512 35.839 24.3824 36.3883 24.776 36.8619C25.0383 37.1839 25.4881 37.468 26.0691 37.6953C25.5631 37.3733 25.1133 36.7482 25.0946 35.7821C25.6755 36.0284 26.3315 36.1799 26.8375 36.2746C27.9057 36.483 28.9552 36.5019 29.8735 36.4451C30.0984 36.4262 30.3421 36.4072 30.5482 36.3883C30.7731 36.3504 30.9793 36.3315 31.1854 36.3125C31.5977 36.2368 31.9538 36.1799 32.3099 36.1042C32.4785 36.0663 32.6472 36.0284 32.7971 35.9716C32.9658 35.9337 33.097 35.8958 33.2282 35.839Z" fill="#F2D2AC"/>
<path d="M32.3478 23.1854C32.9101 23.2044 33.2849 23.3748 33.5472 23.64C33.6035 23.3938 33.641 23.0907 33.6222 22.7497C33.6035 22.3898 33.5285 22.0678 33.4161 21.8216C33.3786 21.67 33.1537 21.2722 32.8726 21.2912C32.5165 21.3101 32.2541 22.011 32.3103 22.8445C32.3103 22.9581 32.3291 23.0718 32.3478 23.1854ZM33.2849 25.3259C33.2849 25.4774 33.3411 25.61 33.4161 25.6669C33.5472 25.7426 33.7159 25.5911 33.7909 25.3449C33.7909 25.3259 33.8096 25.307 33.8096 25.288C33.8658 25.0607 33.8096 24.8334 33.6784 24.7766C33.5472 24.7008 33.3786 24.8523 33.3036 25.0986C33.3036 25.1744 33.2849 25.2501 33.2849 25.3259ZM30.7361 25.7426C30.7923 25.8374 30.886 25.9321 30.9985 26.0078C31.2421 26.1594 31.5045 26.1783 31.6544 26.0457L31.7106 25.9889C31.7668 25.8752 31.7481 25.7237 31.6544 25.5722C31.5982 25.4774 31.5045 25.3827 31.392 25.3259C31.1484 25.1744 30.886 25.1554 30.7548 25.2691C30.7361 25.288 30.7173 25.307 30.6986 25.3449C30.6424 25.4396 30.6611 25.5911 30.7361 25.7426ZM40.0504 29.2091C40.0316 29.2091 40.0316 29.2091 40.0504 29.2091V29.2091ZM39.7505 34.4561C39.3945 34.7971 39.0009 35.1191 38.5511 35.4222C36.6208 36.7482 33.9221 37.79 32.0105 38.0362C30.5674 38.2636 29.1618 38.3014 27.9437 38.1499C27.2315 38.0552 26.6131 37.9037 26.0696 37.6953C25.4886 37.468 25.0388 37.1838 24.7764 36.8618C24.3829 36.3883 24.2704 35.82 24.2892 35.3275C24.3079 35.0623 24.3641 34.7971 24.4766 34.5698L24.5328 34.4561C24.664 34.2099 25.0201 33.6227 25.6947 33.6795C25.7135 33.6795 25.7697 33.6795 25.8259 33.6984C25.8822 33.6984 25.9759 33.7174 26.0508 33.7363C26.182 33.7553 26.3132 33.7742 26.4819 33.7932H26.5381C28.3935 34.0205 30.1739 34.0015 31.8606 33.7363C34.3156 33.3575 36.5833 32.4672 38.6073 31.0844C38.7198 31.0086 38.8135 30.9329 38.9259 30.8571L40.0317 29.1902C36.677 32.2778 32.985 33.1681 30.1739 33.3385C28.6371 33.4332 27.3627 33.3196 26.5568 33.2059C26.5194 33.2059 26.5006 33.2059 26.4819 33.187C26.2382 33.1491 26.0508 33.1302 25.9009 33.1112C25.8259 33.1112 25.7697 33.0923 25.7322 33.0923C25.5261 33.0733 25.3199 33.1112 25.1325 33.1681C24.7577 33.2817 24.4204 33.5469 24.1767 33.8879C23.8769 34.3046 23.6895 34.8729 23.6895 35.4411C23.6895 35.9147 23.8019 36.4072 24.0455 36.8618C24.0643 36.8808 24.0643 36.8997 24.083 36.9186C24.1205 36.9755 24.1392 37.0134 24.1767 37.0702C24.2142 37.127 24.2704 37.2028 24.3266 37.2596C24.9076 37.9984 26.182 38.5287 27.8687 38.7561C29.0119 38.9076 30.3425 38.8887 31.7856 38.6803C36.0585 37.9037 38.0826 36.5019 39.0196 35.5359C39.0946 35.4601 39.1508 35.4033 39.207 35.3275C39.5444 34.9297 39.6943 34.6266 39.7505 34.513V34.494C39.7693 34.4561 39.7693 34.4372 39.7693 34.4372L39.7505 34.4561Z" fill="#664F44"/>
<path d="M26.1634 19.4917C26.0322 19.4159 25.8823 19.3591 25.7324 19.3212C25.6386 19.3023 25.5449 19.2833 25.4325 19.2644C25.395 19.2644 25.3575 19.2644 25.3201 19.2454C24.814 19.2075 24.383 19.2833 24.383 19.2833C24.2893 19.3023 24.1956 19.3212 24.1206 19.3591C23.4459 19.5674 22.9774 19.9274 22.6401 20.3441C22.3777 20.685 22.1903 21.045 22.0966 21.4049C22.0778 21.4427 22.0778 21.4617 22.0778 21.4996C22.0591 21.5943 22.0216 21.689 22.0029 21.7648C21.9467 22.0678 21.9092 22.333 21.9092 22.5603C21.9092 22.8634 21.9279 23.0528 21.9279 23.0528C22.0404 22.7877 22.1716 22.5603 22.3027 22.333C22.6213 21.7837 22.9587 21.3291 23.3148 20.9692C23.9894 20.2683 24.6829 19.8895 25.2076 19.7C25.7698 19.5106 26.1634 19.4917 26.1634 19.4917ZM34.2783 18.5256L34.2595 18.4877C34.1846 18.393 34.0909 18.2983 33.9784 18.2225C33.716 18.0521 33.36 17.9573 32.8727 18.0521C32.8727 18.0521 32.2917 18.1847 31.9544 18.5824C31.9544 18.5824 32.9664 18.1468 34.0534 18.9234C34.1471 18.9992 34.2595 19.0749 34.3532 19.1697C34.4469 19.2644 34.5594 19.3591 34.6531 19.4917C34.6531 19.4917 34.6156 19.0181 34.3345 18.6014C34.3158 18.5635 34.297 18.5446 34.2783 18.5256Z" fill="#E9B784"/>
<path d="M26.2943 26.0648C26.6879 25.9511 27.1002 25.8375 27.5687 25.7238C27.6436 25.3639 27.6624 24.9282 27.6062 24.4547C27.475 23.356 26.9877 22.5036 26.5004 22.5604C26.0132 22.6173 25.7321 23.5644 25.8632 24.663C25.9382 25.2313 26.0881 25.7238 26.2943 26.0648Z" fill="#664F44"/>
<path d="M24.0642 1.30701L23.0522 1.53432L23.2583 3.39067L20.5784 2.00788L19.4727 2.34884L19.4914 2.36778L22.7523 6.11837L22.7898 6.09943L22.8273 6.08049C22.921 6.02366 23.0335 5.94789 23.1272 5.89106C23.1646 5.87212 23.2021 5.85318 23.2396 5.81529C23.3895 5.72058 23.5395 5.62587 23.6894 5.5501L22.3026 3.94L24.5327 5.03866C24.6077 5.00077 24.6639 4.96289 24.7389 4.925L24.5327 3.3149L25.5448 4.50827H25.5635C25.6572 4.47039 25.7322 4.41356 25.8259 4.37567L25.8634 4.35673L25.9008 4.33779C25.9196 4.33779 25.9383 4.31885 25.9383 4.31885L26.0508 4.26202C26.0508 4.26202 26.0695 4.26202 26.0695 4.24308C26.182 4.18625 26.3131 4.12942 26.4256 4.0726L24.0642 1.30701Z" fill="#FFD250"/>
<path d="M23.0709 1.53438L23.2208 1.49649C22.9772 1.38284 22.6773 1.30707 22.34 1.25024C21.6653 1.15553 20.8032 1.25024 19.8287 1.49649C18.8542 1.74275 17.7484 2.17842 16.5865 2.76563C14.2439 3.94006 11.6576 5.73959 9.1463 8.05056C8.26547 8.84614 7.4596 9.6796 6.70996 10.4941L9.74601 14.2826C10.5706 13.3734 11.4514 12.4641 12.426 11.5738C13.7191 10.3805 15.031 9.3197 16.3241 8.41046C17.5798 7.52017 18.8354 6.76248 20.0161 6.15632L19.4914 3.7317L19.5101 2.36784L19.4914 2.3489L20.5971 2.00794L22.7523 3.12554L22.6961 2.36784L23.0709 1.53438Z" fill="#4D9ED7"/>
<path d="M23.0711 1.5343L22.6963 2.36777L22.7525 3.1444L23.2773 3.4096L23.0711 1.5343ZM22.3027 3.93998L24.5517 5.05759L23.6896 5.55009L22.3027 3.93998ZM24.5517 3.31489L24.7578 4.92499L25.5637 4.50826L24.5517 3.31489Z" fill="#132134"/>
<path d="M33.0219 2.72776H33.4342C33.809 2.72776 34.1651 2.78459 34.5024 2.86036C34.5212 2.86036 34.5399 2.86036 34.5587 2.8793H34.5774L34.6149 2.89824H34.6524C34.6149 2.8793 34.5774 2.84142 34.5399 2.82248C34.1651 2.67094 33.7715 2.57622 33.3592 2.5194C31.3352 2.2542 29.0113 3.0119 27.6994 3.54229C27.6245 3.58017 27.5495 3.59911 27.4745 3.637C27.3621 3.69383 27.2497 3.73171 27.1372 3.78854C26.9498 3.86431 26.7624 3.95902 26.5562 4.05373C26.5188 4.07267 26.5 4.07267 26.4625 4.09161C26.3501 4.14844 26.2189 4.20527 26.1065 4.2621C26.1065 4.2621 26.0877 4.2621 26.0877 4.28104L25.9753 4.33787C25.9565 4.33787 25.9378 4.35681 25.9378 4.35681H25.8628L25.8441 4.37575C25.7504 4.41364 25.6754 4.45152 25.5817 4.50835H25.563C25.5442 4.52729 25.5255 4.52729 25.5067 4.54623H25.488C25.4693 4.54623 25.4505 4.56517 25.4505 4.56517C25.3193 4.64094 25.1881 4.69777 25.057 4.77354C24.9632 4.83037 24.8695 4.86825 24.7758 4.92508H24.7571C24.6821 4.96296 24.6259 5.00085 24.5509 5.03873C24.326 5.15239 24.1199 5.28499 23.895 5.41758C23.8763 5.43652 23.8575 5.43652 23.82 5.45547C23.8013 5.47441 23.7826 5.47441 23.7638 5.49335C23.7451 5.51229 23.7263 5.51229 23.7076 5.53124L23.6889 5.55018C23.5389 5.64489 23.389 5.72066 23.2391 5.81537C23.2016 5.83431 23.1641 5.85326 23.1266 5.89114C23.0329 5.94797 22.9205 6.02374 22.8268 6.08056L22.7893 6.09951L22.7518 6.11845L21.9085 6.68672C21.4399 7.00874 20.9901 7.33076 20.5404 7.67173C20.4841 7.70961 20.4279 7.76644 20.3717 7.80432C19.191 8.69461 18.0665 9.66068 16.9796 10.6457C15.8364 11.7065 14.7306 12.7862 13.6999 13.8848C13.1376 14.4531 12.6504 14.9645 12.2756 15.3813C11.4884 16.2337 11.0574 16.7641 11.0761 16.783C11.0761 16.783 11.1511 16.7262 11.2823 16.5936C11.1886 16.7072 11.0761 16.8398 10.9824 16.9535C12.7066 15.0971 14.5994 13.2029 16.6422 11.4223C17.8791 10.3426 19.1723 9.30077 20.5029 8.33471C21.0838 7.91798 21.6836 7.50124 22.2833 7.10345C22.4707 6.97086 22.6768 6.8572 22.8642 6.72461C22.958 6.66778 23.0517 6.61095 23.1641 6.55412C23.2203 6.51624 23.2766 6.47835 23.3328 6.45941C23.4452 6.40259 23.5389 6.32682 23.6514 6.26999C23.7451 6.21316 23.8575 6.15633 23.9512 6.08056C24.0075 6.04268 24.0637 6.02374 24.1199 5.98585L24.5135 5.75854C24.5884 5.72066 24.6634 5.66383 24.7384 5.62595C24.982 5.49335 25.2256 5.36075 25.488 5.22816C25.5067 5.20922 25.5255 5.20922 25.5442 5.19027L25.6567 5.13345C25.7129 5.1145 25.7504 5.07662 25.8066 5.05768C25.8253 5.03873 25.8441 5.03873 25.8628 5.01979L25.9753 4.96296C25.9753 4.96296 25.994 4.96296 25.994 4.94402H26.0127C26.1252 4.8872 26.2376 4.83037 26.3313 4.79248C26.3501 4.79248 26.3688 4.77354 26.3876 4.7546L26.5 4.69777C26.6312 4.64094 26.7436 4.58412 26.8748 4.52729C26.9123 4.50835 26.9498 4.4894 26.9685 4.47046C26.9873 4.47046 27.006 4.45152 27.0248 4.45152C27.0622 4.43258 27.0997 4.41364 27.1372 4.41364C27.2871 4.35681 27.4183 4.28104 27.5683 4.22421C27.6994 4.16738 27.8119 4.11056 27.9431 4.05373C28.6552 3.75065 29.3112 3.5044 29.9296 3.29603C31.0916 2.97401 32.1223 2.76565 33.0219 2.72776Z" fill="white"/>
</g>
<defs>
<clipPath id="clip0_382_14060">
<rect width="42" height="48" fill="white"/>
</clipPath>
</defs>
</svg>
