<svg width="50" height="48" viewBox="0 0 50 48" fill="none" xmlns="http://www.w3.org/2000/svg">
<path d="M14.5145 19.8041H20.8703C19.2788 18.8007 18.6845 17.402 17.8888 14.8074L15.5016 5.90878C14.4138 1.90541 13.5173 0 9.14585 0H0.0100725V2.40203H1.30943C3.98872 2.40203 4.29089 3.40541 5.08662 6.40541L7.17164 14.2095C8.25947 18 9.95165 19.8041 14.5145 19.8041ZM29.2204 19.8041H35.5761C40.1491 19.8041 41.7305 18 42.8284 14.2095L44.9134 6.40541C45.7091 3.40541 46.1019 2.40203 48.6906 2.40203H49.9899V0H40.9448C36.4726 0 35.5761 1.80405 34.579 5.89865L32.1918 14.7973C31.4162 17.4932 30.8118 18.8007 29.2204 19.8041ZM20.8703 28.1959H29.2204V19.7939H20.8703V28.1959ZM0.0100725 48H9.14585C13.5173 48 14.4138 46.0946 15.5016 42.1013L17.8888 33.2027C18.6845 30.6081 19.2788 29.1993 20.8703 28.2061H14.5145C9.94158 28.2061 8.2494 30.0101 7.16156 33.8007L5.07655 41.6047C4.27075 44.5946 3.97865 45.598 1.29936 45.598H0L0.0100725 48ZM40.9448 48H49.9899V45.598H48.6906C46.112 45.598 45.7091 44.5946 44.9134 41.5946L42.8284 33.7905C41.7405 29.9899 40.1491 28.1959 35.5761 28.1959H29.2305C30.8219 29.1993 31.3961 30.4966 32.1918 33.1926L34.579 42.0912C35.5661 46.1959 36.4625 48 40.9448 48Z" fill="#1B0B3B"/>
</svg>
