<svg width="46" height="48" viewBox="0 0 46 48" fill="none" xmlns="http://www.w3.org/2000/svg">
<g clip-path="url(#clip0_382_13961)">
<path fill-rule="evenodd" clip-rule="evenodd" d="M7.93246 8.41593C9.42985 9.62624 9.98389 9.54005 12.799 9.34895L39.2018 7.76019C39.7633 7.76019 39.2954 7.20188 39.1082 7.1082L34.7096 3.93443C34.1465 3.45488 33.4888 3.09929 32.7794 2.89078C32.0699 2.68226 31.3246 2.62548 30.5918 2.72413L5.02751 4.59766C4.09538 4.68759 3.90446 5.15598 4.27881 5.53069L7.92122 8.42343L7.93246 8.41593ZM9.51595 14.5761V42.3831C9.51595 43.882 10.2646 44.4365 11.9417 44.3429L40.9613 42.6642C42.6421 42.5705 42.833 41.5401 42.833 40.3297V12.7063C42.833 11.496 42.3651 10.8328 41.3356 10.934L11.0133 12.7063C9.8903 12.8 9.51595 13.3621 9.51595 14.5799V14.5761ZM38.1649 16.0749C38.3483 16.9143 38.1649 17.7536 37.3226 17.8473L35.9375 18.1208V38.6511C34.7246 39.3031 33.6053 39.674 32.6732 39.674C31.1758 39.674 30.8014 39.2094 29.6784 37.8005L20.5256 23.4379V37.3433L23.4193 37.9953C23.4193 37.9953 23.4193 39.674 21.0871 39.674L14.6483 40.0487C14.4611 39.674 14.6483 38.7447 15.3034 38.5499L16.9805 38.0815V19.7059L14.6483 19.5185C14.5894 19.271 14.5853 19.0136 14.6362 18.7644C14.6871 18.5151 14.7918 18.28 14.943 18.0755C15.0942 17.8709 15.2882 17.702 15.5115 17.5804C15.7347 17.4588 15.9818 17.3874 16.2355 17.3714L23.1385 16.9068L32.6582 31.4754V18.5855L30.2324 18.3082C30.1896 18.0842 30.1957 17.8536 30.2505 17.6322C30.3052 17.4108 30.4073 17.204 30.5496 17.0259C30.692 16.8478 30.8712 16.7027 31.0749 16.6007C31.2787 16.4986 31.5021 16.442 31.7298 16.4347L38.1724 16.06L38.1649 16.0749ZM2.88997 2.06839L29.4688 0.108671C32.7518 -0.172359 33.5903 0.0187417 35.6418 1.49884L44.132 7.49415C45.5321 8.52085 46.0037 8.79813 46.0037 9.91851V42.6754C46.0037 44.7251 45.255 45.9391 42.6346 46.1265L11.7508 48C9.78923 48.0937 8.8571 47.8127 7.83138 46.5012L1.58724 38.37C0.464193 36.8712 0 35.7471 0 34.4506V5.33584C0 3.65715 0.748698 2.24825 2.88997 2.06839Z" fill="black"/>
</g>
<defs>
<clipPath id="clip0_382_13961">
<rect width="46" height="48" fill="white"/>
</clipPath>
</defs>
</svg>
