<svg width="40" height="48" viewBox="0 0 40 48" fill="none" xmlns="http://www.w3.org/2000/svg">
<g clip-path="url(#clip0_382_14166)">
<path d="M34.1175 11.04C34.1175 16.9856 28.6086 24 20.2736 24H12.2449L11.8508 26.4768L9.97779 38.4H0L6.00252 0H22.1681C27.6116 0 31.8942 3.02187 33.4717 7.22133C33.9266 8.44231 34.1457 9.73795 34.1175 11.04Z" fill="#002991"/>
<path d="M39.8684 22.08C39.3358 25.3029 37.6691 28.2318 35.1666 30.3425C32.6641 32.4532 29.489 33.6079 26.2098 33.6H20.6346L18.3139 48H8.38965L9.97783 38.4L11.8519 26.4768L12.245 24H20.2737C28.598 24 34.1175 16.9856 34.1175 11.04C38.2138 13.1456 40.6019 17.4006 39.8684 22.08Z" fill="#60CDFF"/>
<path d="M34.1176 11.0401C32.3999 10.1452 30.3169 9.6001 28.0498 9.6001H14.5133L12.2451 24.0001H20.2738C28.5981 24.0001 34.1176 16.9857 34.1176 11.0401Z" fill="#008CFF"/>
</g>
<defs>
<clipPath id="clip0_382_14166">
<rect width="40" height="48" fill="white"/>
</clipPath>
</defs>
</svg>
