<svg width="69" height="48" viewBox="0 0 69 48" fill="none" xmlns="http://www.w3.org/2000/svg">
<g clip-path="url(#clip0_382_14043)">
<path d="M28.7137 5.23665C30.939 2.9324 34.0371 1.50325 37.4635 1.50325C42.0183 1.50325 45.9921 4.02728 48.1084 7.77427C49.9474 6.95773 51.983 6.50347 54.1247 6.50347C62.3398 6.50347 69 13.18 69 21.4153C69 29.6516 62.3398 36.3281 54.1247 36.3281C53.1408 36.3287 52.1592 36.2315 51.1947 36.038C49.3311 39.3415 45.7799 41.5735 41.7038 41.5735C39.9974 41.5735 38.3835 41.1819 36.9465 40.4854C35.0573 44.9015 30.6559 47.9979 25.5261 47.9979C20.184 47.9979 15.6312 44.6387 13.8836 39.9276C13.1199 40.0888 12.3286 40.1728 11.5167 40.1728C5.15635 40.1729 0 34.9958 0 28.6085C0 24.3282 2.31671 20.5909 5.75884 18.5914C5.05019 16.9709 4.65602 15.1824 4.65602 13.302C4.65602 5.95648 10.6567 0.00195312 18.058 0.00195312C22.4034 0.00195312 26.2652 2.05518 28.7137 5.23665Z" fill="#00A1E0"/>
<path d="M9.9941 24.8916C9.95086 25.0039 10.0098 25.0274 10.0236 25.0469C10.1533 25.1406 10.2851 25.2081 10.4178 25.2833C11.1215 25.6544 11.786 25.7628 12.4809 25.7628C13.8963 25.7628 14.775 25.0146 14.775 23.8102V23.7868C14.775 22.6732 13.7833 22.2688 12.8525 21.9768L12.7316 21.9377C12.0298 21.711 11.4243 21.5158 11.4243 21.0566V21.0323C11.4243 20.6396 11.7782 20.3504 12.3266 20.3504C12.936 20.3504 13.6595 20.5516 14.1253 20.8075C14.1253 20.8075 14.2619 20.8955 14.3121 20.7636C14.3396 20.6933 14.5755 20.0622 14.6001 19.9939C14.6266 19.9196 14.5795 19.8649 14.5313 19.8356C13.9996 19.5142 13.2643 19.2944 12.5036 19.2944L12.3621 19.2954C11.0666 19.2954 10.1624 20.0729 10.1624 21.1875V21.2109C10.1624 22.386 11.16 22.7669 12.0948 23.0326L12.2451 23.0786C12.9263 23.2866 13.5131 23.4653 13.5131 23.9421V23.9655C13.5131 24.4012 13.1318 24.7254 12.5164 24.7254C12.2776 24.7254 11.5158 24.7206 10.6931 24.2038C10.5938 24.1461 10.5359 24.1042 10.4592 24.0583C10.4189 24.0329 10.3177 23.9889 10.2735 24.1218L9.9941 24.8916ZM30.7147 24.8916C30.6714 25.0039 30.7304 25.0274 30.7442 25.0469C30.8739 25.1406 31.0057 25.2081 31.1383 25.2833C31.842 25.6544 32.5066 25.7628 33.2014 25.7628C34.6168 25.7628 35.4956 25.0146 35.4956 23.8102V23.7868C35.4956 22.6732 34.5038 22.2688 33.573 21.9768L33.4521 21.9377C32.7503 21.711 32.1448 21.5158 32.1448 21.0566V21.0323C32.1448 20.6396 32.4986 20.3504 33.0471 20.3504C33.6565 20.3504 34.3799 20.5516 34.8458 20.8075C34.8458 20.8075 34.9825 20.8955 35.0325 20.7636C35.06 20.6933 35.296 20.0622 35.3206 19.9939C35.3471 19.9196 35.2999 19.8649 35.2518 19.8356C34.72 19.5142 33.9848 19.2944 33.224 19.2944L33.0824 19.2954C31.787 19.2954 30.8827 20.0729 30.8827 21.1875V21.2109C30.8827 22.386 31.8804 22.7669 32.8151 23.0326L32.9655 23.0786C33.6467 23.2866 34.2345 23.4653 34.2345 23.9421V23.9655C34.2345 24.4012 33.8521 24.7254 33.2368 24.7254C32.998 24.7254 32.2363 24.7206 31.4136 24.2038C31.3143 24.1461 31.2554 24.1061 31.1807 24.0583C31.1551 24.0417 31.0352 23.9957 30.9939 24.1218L30.7147 24.8916ZM44.8601 22.5324C44.8601 23.2132 44.7323 23.7495 44.4807 24.1285C44.232 24.5036 43.8556 24.6862 43.3308 24.6862C42.805 24.6862 42.4305 24.5046 42.1857 24.1285C41.9379 23.7505 41.8122 23.2132 41.8122 22.5324C41.8122 21.8526 41.9379 21.3173 42.1857 20.9421C42.4305 20.571 42.805 20.3903 43.3308 20.3903C43.8556 20.3903 44.2321 20.571 44.4817 20.9421C44.7324 21.3172 44.8601 21.8525 44.8601 22.5324ZM46.0416 21.2704C45.9256 20.8806 45.7447 20.5368 45.504 20.2506C45.2631 19.9634 44.9585 19.7329 44.5967 19.5649C44.2359 19.3979 43.8094 19.3129 43.3308 19.3129C42.8511 19.3129 42.4245 19.3979 42.0638 19.5649C41.702 19.7329 41.3974 19.9635 41.1556 20.2506C40.9158 20.5378 40.7349 20.8816 40.6179 21.2704C40.5029 21.6581 40.4449 22.082 40.4449 22.5324C40.4449 22.9827 40.5029 23.4076 40.6179 23.7944C40.7349 24.1832 40.9148 24.5271 41.1566 24.8142C41.3974 25.1014 41.7031 25.3309 42.0638 25.494C42.4255 25.6572 42.8511 25.7401 43.3308 25.7401C43.8095 25.7401 44.2351 25.6572 44.5967 25.494C44.9575 25.3309 45.2631 25.1013 45.504 24.8142C45.7448 24.528 45.9256 24.1841 46.0417 23.7944C46.1577 23.4067 46.2156 22.9817 46.2156 22.5324C46.2156 22.0831 46.1576 21.6581 46.0416 21.2704ZM55.7435 24.5044C55.7042 24.3901 55.5932 24.4331 55.5932 24.4331C55.4212 24.4986 55.2383 24.5591 55.0437 24.5894C54.8461 24.6196 54.6289 24.6353 54.3959 24.6353C53.8239 24.6353 53.3698 24.4663 53.0445 24.1323C52.7182 23.7982 52.5353 23.2581 52.5373 22.5274C52.5393 21.8622 52.7004 21.362 52.9904 20.9811C53.2784 20.6022 53.7168 20.4077 54.3016 20.4077C54.7892 20.4077 55.1607 20.4634 55.5498 20.5855C55.5498 20.5855 55.6432 20.6255 55.6874 20.5044C55.7906 20.2192 55.8673 20.015 55.9774 19.7015C56.0089 19.6126 55.9322 19.5745 55.9047 19.5637C55.7513 19.5041 55.3896 19.4075 55.1164 19.3664C54.8608 19.3274 54.562 19.3069 54.2298 19.3069C53.7333 19.3069 53.2911 19.3909 52.9127 19.5589C52.5353 19.7259 52.2148 19.9564 51.9613 20.2437C51.7077 20.5308 51.515 20.8746 51.3863 21.2634C51.2585 21.6511 51.1937 22.077 51.1937 22.5274C51.1937 23.5012 51.4581 24.2885 51.98 24.8649C52.5029 25.4431 53.2882 25.7371 54.3125 25.7371C54.9179 25.7371 55.5391 25.6151 55.9854 25.4402C55.9854 25.4402 56.0709 25.3991 56.0335 25.3006L55.7435 24.5044ZM57.8107 21.8802C57.8667 21.5022 57.9719 21.1876 58.1341 20.9425C58.3788 20.5703 58.7523 20.3662 59.2772 20.3662C59.8022 20.3662 60.1491 20.5713 60.3977 20.9425C60.5629 21.1876 60.6346 21.5159 60.6632 21.8802H57.8107ZM61.7885 21.0489C61.6883 20.6728 61.4396 20.2928 61.2764 20.1189C61.0189 19.8435 60.7673 19.6511 60.5176 19.5436C60.1913 19.4049 59.8001 19.3131 59.3716 19.3131C58.8723 19.3131 58.4191 19.3962 58.0515 19.568C57.683 19.74 57.3734 19.9745 57.1306 20.2665C56.8877 20.5575 56.705 20.9043 56.5889 21.298C56.472 21.6897 56.413 22.1166 56.413 22.5668C56.413 23.025 56.474 23.4518 56.5949 23.8357C56.7168 24.2225 56.9113 24.5634 57.1748 24.8456C57.4372 25.1299 57.7753 25.3527 58.1803 25.5079C58.5823 25.6622 59.0709 25.7423 59.632 25.7413C60.787 25.7374 61.3954 25.4815 61.646 25.3438C61.6903 25.3194 61.7326 25.2764 61.6794 25.1533L61.418 24.4256C61.3787 24.3172 61.2676 24.3572 61.2676 24.3572C60.9815 24.4627 60.5747 24.6522 59.6261 24.6503C59.0059 24.6493 58.5459 24.4676 58.2578 24.1833C57.962 23.8923 57.8175 23.4644 57.792 22.8608L61.7914 22.8647C61.7914 22.8647 61.8965 22.8628 61.9074 22.7611C61.9114 22.7183 62.0451 21.9446 61.7885 21.0489ZM25.7809 21.8802C25.8379 21.5022 25.9421 21.1876 26.1043 20.9425C26.349 20.5703 26.7226 20.3662 27.2474 20.3662C27.7723 20.3662 28.1193 20.5713 28.3689 20.9425C28.533 21.1876 28.6048 21.5159 28.6333 21.8802H25.7809ZM29.7577 21.0489C29.6575 20.6728 29.4098 20.2928 29.2467 20.1189C28.9891 19.8435 28.7375 19.6511 28.4879 19.5436C28.1615 19.4049 27.7704 19.3131 27.3418 19.3131C26.8435 19.3131 26.3894 19.3962 26.0218 19.568C25.6532 19.74 25.3436 19.9745 25.1008 20.2665C24.858 20.5575 24.6752 20.9043 24.5592 21.298C24.4433 21.6897 24.3833 22.1166 24.3833 22.5668C24.3833 23.025 24.4442 23.4518 24.5652 23.8357C24.6871 24.2225 24.8817 24.5634 25.1451 24.8456C25.4076 25.1299 25.7456 25.3527 26.1506 25.5079C26.5527 25.6622 27.0411 25.7423 27.6024 25.7413C28.7573 25.7374 29.3657 25.4815 29.6163 25.3438C29.6606 25.3194 29.7028 25.2764 29.6498 25.1533L29.3893 24.4256C29.349 24.3172 29.238 24.3572 29.238 24.3572C28.952 24.4627 28.546 24.6522 27.5955 24.6503C26.9763 24.6493 26.5163 24.4676 26.2283 24.1833C25.9324 23.8923 25.788 23.4644 25.7624 22.8608L29.7618 22.8647C29.7618 22.8647 29.8669 22.8628 29.8778 22.7611C29.8816 22.7183 30.0152 21.9446 29.7577 21.0489ZM17.1362 24.4827C16.9799 24.3586 16.9583 24.3273 16.9052 24.2472C16.8266 24.1251 16.7863 23.9513 16.7863 23.7305C16.7863 23.3808 16.9023 23.1298 17.1431 22.9608C17.1402 22.9618 17.4871 22.6629 18.3029 22.6736C18.8759 22.6814 19.388 22.7654 19.388 22.7654V24.5725H19.3889C19.3889 24.5725 18.8808 24.6809 18.3088 24.7151C17.4949 24.7639 17.1332 24.4817 17.1362 24.4827ZM18.7275 21.69C18.5653 21.6782 18.3549 21.6714 18.1033 21.6714C17.7603 21.6714 17.429 21.7143 17.1184 21.7974C16.8059 21.8804 16.5248 22.0104 16.283 22.1822C16.0415 22.3535 15.8431 22.5777 15.7031 22.8376C15.5616 23.0994 15.4898 23.4081 15.4898 23.7539C15.4898 24.1056 15.5507 24.4113 15.6726 24.6614C15.7945 24.9124 15.9704 25.1214 16.1945 25.2827C16.4166 25.4438 16.6909 25.562 17.0093 25.6333C17.3229 25.7046 17.6787 25.7407 18.0679 25.7407C18.4778 25.7407 18.8867 25.7075 19.2828 25.6401C19.675 25.5736 20.1566 25.4769 20.2902 25.4467C20.3839 25.4243 20.4773 25.4005 20.5704 25.3754C20.6697 25.351 20.6618 25.2455 20.6618 25.2455L20.6598 21.6108C20.6598 20.8137 20.4456 20.2227 20.0239 19.8565C19.6042 19.4912 18.9859 19.3064 18.1869 19.3064C17.887 19.3064 17.4045 19.3476 17.1155 19.4052C17.1155 19.4052 16.2417 19.5732 15.8819 19.8525C15.8819 19.8525 15.8033 19.9014 15.8465 20.0108L16.1296 20.7669C16.165 20.8646 16.2604 20.8314 16.2604 20.8314C16.2604 20.8314 16.2909 20.8196 16.3263 20.7991C17.0959 20.383 18.069 20.3957 18.069 20.3957C18.5015 20.3957 18.8337 20.4816 19.0578 20.6525C19.2759 20.8186 19.387 21.0696 19.387 21.599V21.7671C19.043 21.7183 18.7275 21.69 18.7275 21.69ZM50.9847 19.642C51.0151 19.5521 50.9513 19.5091 50.9247 19.4994C50.8569 19.473 50.5168 19.4017 50.2544 19.3851C49.7522 19.3548 49.4731 19.4389 49.2233 19.5502C48.9756 19.6615 48.7005 19.8412 48.5471 20.0454V19.5619C48.5471 19.4945 48.4989 19.4408 48.4321 19.4408H47.4069C47.3401 19.4408 47.2919 19.4945 47.2919 19.5619V25.4901C47.2919 25.5565 47.347 25.6112 47.4138 25.6112H48.4645C48.4967 25.6111 48.5275 25.5982 48.5502 25.5755C48.5728 25.5528 48.5855 25.5221 48.5854 25.4901V22.5285C48.5854 22.1309 48.6297 21.7344 48.7182 21.4853C48.8046 21.2391 48.9226 21.0418 49.0681 20.9001C49.2145 20.7595 49.3806 20.6609 49.5625 20.6052C49.7482 20.5485 49.9536 20.53 50.0991 20.53C50.3085 20.53 50.5385 20.5836 50.5385 20.5836C50.6151 20.5924 50.6584 20.5455 50.6839 20.4762C50.7527 20.2945 50.9474 19.7504 50.9847 19.642Z" fill="white"/>
<path d="M41.1222 16.8946C40.9944 16.8555 40.8785 16.8291 40.7271 16.8008C40.5736 16.7735 40.3909 16.7598 40.1835 16.7598C39.46 16.7598 38.8899 16.9629 38.49 17.3634C38.0919 17.762 37.8215 18.3686 37.6859 19.1666L37.6367 19.4352H36.7286C36.7286 19.4352 36.6185 19.4313 36.5949 19.5505L36.4465 20.3779C36.4356 20.456 36.4701 20.5058 36.5762 20.5058H37.4599L36.5634 25.4797C36.4936 25.8802 36.413 26.2094 36.3236 26.4594C36.236 26.7056 36.1506 26.8901 36.0444 27.025C35.9422 27.1539 35.8459 27.2496 35.6787 27.3053C35.5411 27.3512 35.3819 27.3727 35.2079 27.3727C35.1116 27.3727 34.9829 27.357 34.8875 27.3375C34.7932 27.3189 34.743 27.2984 34.6713 27.2681C34.6713 27.2681 34.5681 27.2291 34.5268 27.3316C34.4943 27.4166 34.2585 28.0603 34.2299 28.1395C34.2024 28.2185 34.2417 28.2801 34.2918 28.2986C34.4098 28.3397 34.4972 28.367 34.6575 28.4051C34.8797 28.4569 35.0673 28.4598 35.2432 28.4598C35.6108 28.4598 35.947 28.4081 36.2252 28.3085C36.5044 28.2078 36.748 28.0329 36.9643 27.7966C37.1973 27.5406 37.3437 27.273 37.4834 26.9068C37.6219 26.5453 37.7409 26.096 37.8352 25.5725L38.7365 20.5058H40.0536C40.0536 20.5058 40.1646 20.5097 40.1873 20.3896L40.3367 19.5632C40.3465 19.4842 40.3131 19.4353 40.2059 19.4353H38.9272C38.9341 19.407 38.992 18.9595 39.1385 18.5386C39.2015 18.3599 39.3194 18.2143 39.4187 18.1147C39.517 18.017 39.63 17.9476 39.7539 17.9076C39.8807 17.8665 40.0252 17.847 40.1835 17.847C40.3034 17.847 40.4222 17.8607 40.5117 17.8792C40.6355 17.9056 40.6837 17.9193 40.7162 17.9291C40.847 17.9682 40.8646 17.9301 40.8902 17.8676L41.1959 17.0334C41.2273 16.9434 41.1497 16.9053 41.1222 16.8946ZM23.2554 25.4904C23.2554 25.5569 23.2073 25.6106 23.1404 25.6106H22.0799C22.013 25.6106 21.9658 25.5569 21.9658 25.4904V17.0079C21.9658 16.9415 22.013 16.8878 22.0799 16.8878H23.1404C23.2073 16.8878 23.2554 16.9415 23.2554 17.0079V25.4904Z" fill="white"/>
</g>
<defs>
<clipPath id="clip0_382_14043">
<rect width="69" height="48" fill="white"/>
</clipPath>
</defs>
</svg>
