<svg width="42" height="48" viewBox="0 0 42 48" fill="none" xmlns="http://www.w3.org/2000/svg">
<g clip-path="url(#clip0_382_14184)">
<path d="M36.7118 9.42587C36.6788 9.18587 36.469 9.05305 36.2956 9.03842C36.1226 9.02395 32.4597 8.7519 32.4597 8.7519C32.4597 8.7519 29.9159 6.22121 29.6367 5.9411C29.3573 5.66116 28.8117 5.74631 28.5999 5.80878C28.5687 5.81798 28.0441 5.98023 27.1763 6.24932C26.3265 3.79902 24.8268 1.5473 22.1885 1.5473C22.1156 1.5473 22.0407 1.55026 21.9657 1.55453C21.2154 0.560174 20.2859 0.128174 19.483 0.128174C13.337 0.128174 10.4008 7.82708 9.48015 11.7394C7.09197 12.4809 5.39541 13.0081 5.1787 13.0763C3.84566 13.4953 3.8035 13.5374 3.62847 14.7961C3.49674 15.749 0.00878906 42.7785 0.00878906 42.7785L27.1876 47.8813L41.914 44.6889C41.914 44.6889 36.7443 9.66587 36.7118 9.42587ZM25.6741 6.71486L23.3744 7.42812C23.3752 7.26571 23.376 7.10593 23.376 6.93119C23.376 5.40834 23.165 4.1822 22.8266 3.2102C24.1861 3.38116 25.0914 4.93113 25.6741 6.71486ZM21.1402 3.51217C21.5182 4.46116 21.7639 5.82308 21.7639 7.66089C21.7639 7.75491 21.7631 7.84089 21.7623 7.92784C20.2667 8.39206 18.6415 8.89606 17.0127 9.40171C17.9272 5.86483 19.6415 4.15656 21.1402 3.51217ZM19.3142 1.78006C19.5795 1.78006 19.8467 1.87031 20.1025 2.04669C18.1328 2.97546 16.0215 5.31464 15.1299 9.98593L11.3755 11.1511C12.4199 7.58806 14.8997 1.78006 19.3142 1.78006Z" fill="#95BF46"/>
<path d="M36.2952 9.03823C36.1221 9.02376 32.4593 8.75171 32.4593 8.75171C32.4593 8.75171 29.9154 6.22102 29.6362 5.94091C29.5317 5.83669 29.3908 5.78327 29.2435 5.76025L27.1885 47.8807L41.9136 44.6887C41.9136 44.6887 36.7438 9.66568 36.7114 9.42568C36.6784 9.18568 36.4686 9.05286 36.2952 9.03823Z" fill="#5E8E3E"/>
<path d="M22.1884 17.1921L20.3726 22.6046C20.3726 22.6046 18.7816 21.7537 16.8315 21.7537C13.9725 21.7537 13.8286 23.5516 13.8286 24.0046C13.8286 26.4766 20.2592 27.4238 20.2592 33.2141C20.2592 37.7696 17.3758 40.7031 13.4879 40.7031C8.82241 40.7031 6.43652 37.7935 6.43652 37.7935L7.68573 33.6576C7.68573 33.6576 10.1382 35.7674 12.2077 35.7674C13.5599 35.7674 14.1099 34.7006 14.1099 33.9211C14.1099 30.6965 8.83422 30.5527 8.83422 25.2541C8.83422 20.7946 12.0285 16.479 18.4765 16.479C20.961 16.479 22.1884 17.1921 22.1884 17.1921Z" fill="white"/>
</g>
<defs>
<clipPath id="clip0_382_14184">
<rect width="42" height="48" fill="white"/>
</clipPath>
</defs>
</svg>
