<svg width="48" height="48" viewBox="0 0 48 48" fill="none" xmlns="http://www.w3.org/2000/svg">
<g clip-path="url(#clip0_382_13878)">
<path fill-rule="evenodd" clip-rule="evenodd" d="M17.599 0C14.9456 0.00195719 12.7982 2.15095 12.8001 4.79902C12.7982 7.44709 14.9475 9.59608 17.6009 9.59804H22.4017V4.80098C22.4037 2.1529 20.2543 0.00391437 17.599 0C17.6009 0 17.6009 0 17.599 0ZM17.599 12.8H4.80079C2.14742 12.802 -0.00195575 14.9509 5.35946e-06 17.599C-0.00391685 20.2471 2.14545 22.3961 4.79883 22.4H17.599C20.2523 22.398 22.4017 20.2491 22.3997 17.601C22.4017 14.9509 20.2523 12.802 17.599 12.8Z" fill="#36C5F0"/>
<path fill-rule="evenodd" clip-rule="evenodd" d="M48.0003 17.599C48.0023 14.9509 45.8529 12.802 43.1995 12.8C40.5462 12.802 38.3968 14.9509 38.3988 17.599V22.4H43.1995C45.8529 22.398 48.0023 20.2491 48.0003 17.599ZM35.2002 17.599V4.79902C35.2022 2.1529 33.0547 0.00391437 30.4014 0C27.748 0.00195719 25.5986 2.15095 25.6006 4.79902V17.599C25.5967 20.2471 27.746 22.3961 30.3994 22.4C33.0528 22.398 35.2022 20.2491 35.2002 17.599Z" fill="#2EB67D"/>
<path fill-rule="evenodd" clip-rule="evenodd" d="M30.3994 48C33.0528 47.9981 35.2022 45.8491 35.2002 43.201C35.2022 40.5529 33.0528 38.4039 30.3994 38.402H25.5986V43.201C25.5967 45.8471 27.746 47.9961 30.3994 48ZM30.3994 35.1981H43.1995C45.8529 35.1961 48.0023 33.0471 48.0003 30.399C48.0043 27.751 45.8549 25.602 43.2015 25.5981H30.4014C27.748 25.6 25.5986 27.749 25.6006 30.3971C25.5986 33.0471 27.746 35.1961 30.3994 35.1981Z" fill="#ECB22E"/>
<path fill-rule="evenodd" clip-rule="evenodd" d="M1.34093e-06 30.399C-0.00195976 33.0471 2.14741 35.1961 4.80079 35.198C7.45416 35.1961 9.60353 33.0471 9.60157 30.399V25.6H4.80079C2.14741 25.602 -0.00195976 27.751 1.34093e-06 30.399ZM12.8001 30.399V43.199C12.7962 45.8471 14.9456 47.9961 17.599 48C20.2523 47.998 22.4017 45.8491 22.3997 43.201V30.4029C22.4037 27.7549 20.2543 25.6059 17.6009 25.602C14.9456 25.602 12.7982 27.751 12.8001 30.399Z" fill="#E01E5A"/>
</g>
<defs>
<clipPath id="clip0_382_13878">
<rect width="48" height="48" fill="white"/>
</clipPath>
</defs>
</svg>
