<svg width="115" height="48" viewBox="0 0 115 48" fill="none" xmlns="http://www.w3.org/2000/svg">
<g clip-path="url(#clip0_382_14150)">
<path d="M8.08189 18.7258C8.08189 17.4819 9.10409 17.0033 10.7974 17.0033C13.225 17.0033 16.2916 17.7372 18.7194 19.045V11.5488C16.0681 10.4962 13.4487 10.0815 10.7974 10.0815C4.3125 10.0815 0 13.4628 0 19.1089C0 27.9124 12.1388 26.5091 12.1388 30.3051C12.1388 31.7721 10.8612 32.2507 9.0722 32.2507C6.42091 32.2507 3.0347 31.1661 0.351289 29.6988V37.2906C3.3222 38.5665 6.325 39.1086 9.0722 39.1086C15.7166 39.1086 20.2847 35.8233 20.2847 30.1135C20.2528 20.608 8.08189 22.2984 8.08189 18.7258ZM29.6763 3.70204L21.8819 5.36061L21.85 30.9108C21.85 35.632 25.3959 39.1086 30.1237 39.1086C32.7431 39.1086 34.6597 38.6302 35.7138 38.056V31.5808C34.6918 31.9955 29.6444 33.4627 29.6444 28.7418V17.418H35.7138V10.6238H29.6444L29.6763 3.70204ZM45.6487 12.9842L45.1375 10.6238H38.2375V38.5344H46.2237V19.6191C48.1082 17.163 51.3028 17.6096 52.2931 17.9603V10.6238C51.2709 10.241 47.5334 9.53921 45.6487 12.9842ZM54.2416 10.6238H62.2597V38.5344H54.2416V10.6238ZM54.2416 8.19957L62.2597 6.47709V0.00183105L54.2416 1.69247V8.19957ZM78.9347 10.0815C75.8041 10.0815 73.7916 11.5488 72.6737 12.5697L72.2582 10.592H65.2306V47.7847L73.2166 46.0943L73.2487 37.0672C74.3987 37.8966 76.0916 39.0767 78.9028 39.0767C84.6209 39.0767 89.8278 34.4834 89.8278 24.3719C89.7959 15.1214 84.525 10.0815 78.9347 10.0815ZM77.0181 32.0592C75.1334 32.0592 74.0151 31.3895 73.2487 30.5601L73.2166 18.7258C74.0472 17.8009 75.1972 17.163 77.0181 17.163C79.925 17.163 81.9375 20.4165 81.9375 24.5951C81.9375 28.8694 79.9569 32.0592 77.0181 32.0592ZM115 24.6908C115 16.5249 111.039 10.0815 103.468 10.0815C95.8651 10.0815 91.2651 16.5252 91.2651 24.6271C91.2651 34.2282 96.6959 39.0767 104.49 39.0767C108.292 39.0767 111.167 38.2155 113.339 37.0035V30.6238C111.167 31.7084 108.675 32.3783 105.513 32.3783C102.414 32.3783 99.6666 31.2937 99.3153 27.5298H114.936C114.936 27.1149 115 25.4563 115 24.6908ZM99.2194 21.6605C99.2194 18.0561 101.424 16.5568 103.436 16.5568C105.385 16.5568 107.461 18.0561 107.461 21.6605H99.2194Z" fill="#6772E5"/>
</g>
<defs>
<clipPath id="clip0_382_14150">
<rect width="115" height="48" fill="white"/>
</clipPath>
</defs>
</svg>
