<svg width="49" height="48" viewBox="0 0 49 48" fill="none" xmlns="http://www.w3.org/2000/svg">
<g clip-path="url(#clip0_382_13897)">
<path d="M25.8818 16.0005C29.7623 16.0005 32.908 12.8663 32.908 9.00001C32.908 5.13374 29.7623 1.99951 25.8818 1.99951C22.0012 1.99951 18.8555 5.13374 18.8555 9.00001C18.8555 12.8663 22.0012 16.0005 25.8818 16.0005Z" fill="#7B83EB"/>
<path opacity="0.1" d="M25.3805 10.5H19.0166L19.0482 10.6395L19.0512 10.6515L19.0844 10.7805C19.5468 12.5276 20.6687 14.0291 22.2158 14.9716C23.763 15.9141 25.6158 16.2247 27.3873 15.8385V12.4995C27.3857 11.9697 27.1738 11.462 26.7978 11.0874C26.4218 10.7128 25.9122 10.5016 25.3805 10.5Z" fill="black"/>
<path opacity="0.2" d="M23.8751 12H19.5332C20.103 13.197 21.0021 14.2084 22.126 14.9165C23.2498 15.6247 24.5523 16.0006 25.882 16.0005V13.9995C25.8804 13.4697 25.6685 12.962 25.2925 12.5874C24.9164 12.2128 24.4069 12.0016 23.8751 12Z" fill="black"/>
<path d="M41.6902 16.5C44.6004 16.5 46.9596 14.1495 46.9596 11.25C46.9596 8.35051 44.6004 6 41.6902 6C38.7801 6 36.4209 8.35051 36.4209 11.25C36.4209 14.1495 38.7801 16.5 41.6902 16.5Z" fill="#5059C9"/>
<path d="M46.207 18H34.3721C34.1165 18 33.8715 18.1011 33.6908 18.2812C33.5101 18.4612 33.4085 18.7054 33.4085 18.96V31.125C33.3759 32.8856 33.9514 34.6039 35.0387 35.9922C36.1259 37.3805 37.6589 38.3545 39.381 38.751C40.4777 38.9803 41.612 38.963 42.7012 38.7004C43.7904 38.4378 44.8071 37.9365 45.6773 37.233C46.5475 36.5295 47.2493 35.6415 47.7316 34.6337C48.2139 33.6258 48.4646 32.5235 48.4653 31.407V20.25C48.4653 19.6533 48.2274 19.081 47.8039 18.659C47.3803 18.2371 46.8059 18 46.207 18Z" fill="#5059C9"/>
<path d="M37.9263 20.25V34.5C37.9278 37.1408 37.0543 39.7083 35.4415 41.8039C33.8287 43.8996 31.5667 45.4063 29.0065 46.0901C26.4464 46.774 23.7313 46.5968 21.2826 45.586C18.8339 44.5752 16.7885 42.7874 15.4639 40.5C15.1742 40.0203 14.9225 39.5188 14.7111 39C14.514 38.5109 14.3481 38.0099 14.2143 37.5C13.9661 36.5191 13.8397 35.5116 13.8379 34.5V20.25C13.8375 19.9544 13.8956 19.6617 14.009 19.3885C14.1223 19.1153 14.2887 18.8671 14.4984 18.6581C14.7082 18.4491 14.9573 18.2834 15.2315 18.1705C15.5057 18.0575 15.7995 17.9996 16.0962 18H35.668C35.9647 17.9996 36.2585 18.0575 36.5327 18.1705C36.8068 18.2834 37.056 18.4491 37.2657 18.6581C37.4755 18.8671 37.6418 19.1153 37.7552 19.3885C37.8685 19.6617 37.9267 19.9544 37.9263 20.25Z" fill="#7B83EB"/>
<path opacity="0.2" d="M23.8751 12H19.5332C20.103 13.197 21.0021 14.2084 22.126 14.9165C23.2498 15.6247 24.5523 16.0006 25.882 16.0005V13.9995C25.8804 13.4697 25.6685 12.962 25.2925 12.5874C24.9164 12.2128 24.4069 12.0016 23.8751 12Z" fill="black"/>
<path opacity="0.1" d="M27.3876 18V37.005C27.3876 37.4572 27.2323 37.8957 26.9474 38.2478C26.6626 38.5998 26.2654 38.8441 25.8219 38.94C25.6802 38.982 25.533 39.0022 25.3853 39H14.7111C14.514 38.5109 14.3481 38.0099 14.2143 37.5C13.9661 36.5191 13.8397 35.5116 13.8379 34.5V20.25C13.8375 19.9544 13.8956 19.6617 14.009 19.3885C14.1223 19.1153 14.2887 18.8671 14.4984 18.6581C14.7082 18.4491 14.9573 18.2834 15.2315 18.1705C15.5057 18.0575 15.7995 17.9996 16.0962 18H27.3876Z" fill="black"/>
<path opacity="0.2" d="M25.8821 18V38.505C25.8843 38.6522 25.864 38.7989 25.8219 38.94C25.7256 39.3819 25.4804 39.7776 25.1271 40.0614C24.7738 40.3453 24.3336 40.5 23.8797 40.5H15.4639C15.1742 40.0203 14.9225 39.5188 14.7111 39C14.514 38.5109 14.3481 38.0099 14.2143 37.5C13.9661 36.5191 13.8397 35.5116 13.8379 34.5V20.25C13.8375 19.9544 13.8956 19.6617 14.009 19.3885C14.1223 19.1153 14.2887 18.8671 14.4984 18.6581C14.7082 18.4491 14.9573 18.2834 15.2315 18.1705C15.5057 18.0575 15.7995 17.9996 16.0962 18H25.8821Z" fill="black"/>
<path opacity="0.2" d="M25.8821 18V35.505C25.8797 36.0334 25.668 36.5394 25.293 36.9131C24.918 37.2867 24.4101 37.4976 23.8797 37.5H14.2143C13.9661 36.5191 13.8397 35.5116 13.8379 34.5V20.25C13.8375 19.9544 13.8956 19.6617 14.009 19.3885C14.1223 19.1153 14.2887 18.8671 14.4984 18.6581C14.7082 18.4491 14.9573 18.2834 15.2315 18.1705C15.5057 18.0575 15.7995 17.9996 16.0962 18H25.8821Z" fill="black"/>
<path opacity="0.2" d="M16.0962 18C15.7995 17.9996 15.5057 18.0575 15.2315 18.1705C14.9573 18.2834 14.7082 18.4491 14.4984 18.6581C14.2887 18.8671 14.1223 19.1153 14.009 19.3885C13.8956 19.6617 13.8375 19.9544 13.8379 20.25V34.5C13.8397 35.5116 13.9661 36.5191 14.2143 37.5H22.3742C22.9045 37.4976 23.4125 37.2867 23.7875 36.9131C24.1625 36.5394 24.3742 36.0334 24.3766 35.505V18H16.0962Z" fill="black"/>
<path d="M2.29495 12H22.3696C22.9019 12 23.4123 12.2107 23.7887 12.5856C24.165 12.9606 24.3765 13.4692 24.3765 13.9995V34.0005C24.3765 34.5308 24.165 35.0394 23.7887 35.4144C23.4123 35.7893 22.9019 36 22.3696 36H2.29495C1.7627 36 1.25224 35.7893 0.875883 35.4144C0.499523 35.0394 0.288086 34.5308 0.288086 34.0005L0.288086 13.9995C0.288086 13.4692 0.499523 12.9606 0.875883 12.5856C1.25224 12.2107 1.7627 12 2.29495 12Z" fill="#4B53BC"/>
<path d="M18.3248 19.4625H13.8233V31.4925H10.8694V19.4625H6.34082V16.5075H18.3248V19.4625Z" fill="white"/>
</g>
<defs>
<clipPath id="clip0_382_13897">
<rect width="49" height="48" fill="white"/>
</clipPath>
</defs>
</svg>
