<svg width="48" height="48" viewBox="0 0 48 48" fill="none" xmlns="http://www.w3.org/2000/svg">
<g clip-path="url(#clip0_382_14010)">
<path d="M43.3125 0H4.6875C2.09867 0 0 2.09867 0 4.6875V43.3125C0 45.9013 2.09867 48 4.6875 48H43.3125C45.9013 48 48 45.9013 48 43.3125V4.6875C48 2.09867 45.9013 0 43.3125 0Z" fill="url(#paint0_linear_382_14010)"/>
<path d="M39.5101 6.23999H29.3701C28.1275 6.23999 27.1201 7.24735 27.1201 8.48999V24.99C27.1201 26.2326 28.1275 27.24 29.3701 27.24H39.5101C40.7528 27.24 41.7601 26.2326 41.7601 24.99V8.48999C41.7601 7.24735 40.7528 6.23999 39.5101 6.23999Z" fill="white"/>
<path d="M18.6302 6.23999H8.49023C7.24759 6.23999 6.24023 7.24735 6.24023 8.48999V36.99C6.24023 38.2326 7.24759 39.24 8.49023 39.24H18.6302C19.8729 39.24 20.8802 38.2326 20.8802 36.99V8.48999C20.8802 7.24735 19.8729 6.23999 18.6302 6.23999Z" fill="white"/>
</g>
<defs>
<linearGradient id="paint0_linear_382_14010" x1="2400" y1="0" x2="2400" y2="4800" gradientUnits="userSpaceOnUse">
<stop stop-color="#0091E6"/>
<stop offset="1" stop-color="#0079BF"/>
</linearGradient>
<clipPath id="clip0_382_14010">
<rect width="48" height="48" fill="white"/>
</clipPath>
</defs>
</svg>
