<svg width="96" height="48" viewBox="0 0 96 48" fill="none" xmlns="http://www.w3.org/2000/svg">
<g clip-path="url(#clip0_382_14246)">
<path d="M0 36.6245L9.9687 21.18H1.17471C1.09319 20.6959 1.06058 20.2048 1.07737 19.7142C1.06149 19.2236 1.0941 18.7326 1.17471 18.2484H15.3462L15.5334 18.737L5.46547 34.1814H14.8594C14.941 34.6655 14.9736 35.1566 14.9568 35.6473C14.9767 36.1056 14.944 36.5648 14.8594 37.0157H0.0982825L0 36.6245ZM28.6397 24.6995C28.694 24.1464 28.6258 23.5882 28.44 23.0645C28.2541 22.5408 27.955 22.0645 27.5642 21.6695C26.6193 21.0202 25.4823 20.7101 24.3386 20.7897C23.5206 20.8023 22.7042 20.8677 21.8946 20.9853C21.1661 21.0909 20.4472 21.2543 19.7446 21.4739C19.2449 20.5804 19.008 19.5637 19.0613 18.5413C19.9485 18.2428 20.8666 18.0459 21.7982 17.9545C22.7668 17.7921 23.7492 17.7266 24.7308 17.7588C26.7262 17.634 28.701 18.2229 30.302 19.4203C31.5732 20.4967 32.2565 22.3528 32.2565 24.7959V36.6226L29.1283 37.2095C27.9002 37.4042 26.6571 37.5025 25.4141 37.5025C24.3321 37.5118 23.2612 37.4126 22.1886 37.2095C21.3055 37.0326 20.4715 36.6656 19.7446 36.134C19.0736 35.6583 18.5352 35.019 18.1805 34.2769C17.7701 33.4242 17.5689 32.486 17.5936 31.54C17.5522 30.5808 17.7896 29.6302 18.2769 28.803C18.6714 28.0013 19.2806 27.3248 20.0366 26.8486C20.8252 26.3417 21.6805 25.947 22.5779 25.6758C23.5626 25.3949 24.5838 25.2639 25.6079 25.2845C26.2609 25.2602 26.9149 25.2927 27.5623 25.3818C28.0509 25.3818 28.4422 25.4792 28.8334 25.4792V24.6976L28.6397 24.6995ZM28.6397 28.2189C28.1791 28.1942 27.7214 28.1316 27.2712 28.0317C26.6843 28.0317 26.1947 27.9344 25.8054 27.9344C24.5698 27.8605 23.3413 28.1677 22.2859 28.8143C21.9001 29.112 21.5919 29.4985 21.3877 29.941C21.1835 30.3835 21.0893 30.8688 21.1131 31.3556C21.0579 31.8946 21.1573 32.4382 21.3996 32.9229C21.642 33.4075 22.0172 33.8132 22.4815 34.0925C22.9007 34.3283 23.3695 34.4624 23.85 34.4838C24.3018 34.5616 24.7602 34.5942 25.2185 34.5811C25.8067 34.5975 26.3953 34.5649 26.9782 34.4838L28.5414 34.1908V28.2283L28.6397 28.2189ZM36.2636 18.2484C36.5566 18.2484 36.7522 18.151 37.0452 18.151H38.6084C38.9013 18.151 39.097 18.2484 39.3899 18.2484C39.4431 18.4064 39.4758 18.5706 39.4873 18.737C39.4873 19.0299 39.5846 19.2256 39.5846 19.5186C39.5846 19.8115 39.682 20.1054 39.682 20.3984C39.6792 20.5669 39.7129 20.7326 39.7793 20.887L40.6592 19.7142C41.039 19.335 41.4663 19.0066 41.9303 18.737C43.068 18.1079 44.3445 17.7721 45.6445 17.7598C46.6741 17.7467 47.715 17.947 48.6744 18.3466C49.6171 18.7258 50.4526 19.33 51.1081 20.1064C51.8201 20.9696 52.3519 21.9668 52.6722 23.039C53.0852 24.4008 53.2832 25.8188 53.2591 27.2417C53.4152 30.031 52.4673 32.7697 50.6204 34.8657C48.8607 36.7228 46.4083 37.6026 43.1921 37.6026C42.6365 37.6189 42.0805 37.5864 41.5306 37.5053C40.9441 37.4073 40.4555 37.3097 40.0648 37.2123V45.9117C39.7718 45.9117 39.4779 46.0091 39.0876 46.0091H37.3279C37.0349 46.0091 36.741 45.9117 36.448 45.9117V18.2484H36.2636ZM39.8795 34.0841C40.3549 34.2598 40.8456 34.3908 41.3453 34.4754C41.9927 34.5645 42.6467 34.597 43.2997 34.5727C44.1422 34.5942 44.9602 34.4604 45.7334 34.1814C46.4563 33.934 47.0982 33.4946 47.5905 32.9103C48.1478 32.2447 48.5786 31.4827 48.8616 30.662C49.1968 29.62 49.3617 28.5309 49.3502 27.4364C49.4116 25.8052 49.0406 24.1867 48.2747 22.745C47.9026 22.1604 47.3786 21.6878 46.7587 21.3778C46.1388 21.0679 45.4463 20.9322 44.7553 20.9853C44.1567 20.9871 43.5624 21.0861 42.9955 21.2783C42.439 21.4884 41.9377 21.8226 41.5297 22.2555C41.0616 22.7302 40.6956 23.2956 40.4542 23.917C40.1593 24.693 40.0261 25.5212 40.063 26.3506V34.0729L39.8795 34.0841ZM57.6696 21.0733H55.236C55.1483 20.8569 55.1149 20.6223 55.1386 20.39V18.8268C55.1386 18.5339 55.236 18.3382 55.236 18.1435H61.1985V37.1056C60.9055 37.1056 60.6116 37.2029 60.3186 37.2029H58.5589C58.2659 37.2029 57.972 37.1056 57.679 37.1056L57.6696 21.0733ZM69.106 28.599C69.2034 30.6517 69.6929 32.2158 70.6692 33.0956C71.9169 34.1568 73.5325 34.6835 75.1659 34.5615C76.8666 34.5708 78.5562 34.2741 80.1512 33.6816C80.3877 34.108 80.5527 34.5703 80.6398 35.0501C80.7518 35.5642 80.8176 36.0874 80.8363 36.6132C79.9952 36.9892 79.1079 37.252 78.1977 37.3948C77.1343 37.5979 76.0448 37.6962 74.9721 37.6878C73.4753 37.7468 71.9812 37.5147 70.5728 37.0045C69.4424 36.4748 68.4161 35.7466 67.5429 34.8544C66.7312 33.9554 66.1301 32.8867 65.7831 31.7262C65.3831 30.4619 65.1851 29.1425 65.1962 27.8164C65.2019 26.4985 65.3647 25.1956 65.6849 23.9067C66.0209 22.7621 66.5862 21.6978 67.3463 20.7785C68.1232 19.9051 69.0499 19.1872 70.0832 18.6284C71.3641 18.018 72.7702 17.7167 74.1887 17.7485C75.2948 17.7004 76.3973 17.9042 77.4132 18.3444C78.4291 18.7846 79.3317 19.4498 80.0529 20.2898C80.7481 21.0754 81.2501 22.0127 81.5187 23.0268C81.8856 24.1622 82.0522 25.3528 82.0073 26.5463V27.6227C82.0073 28.0139 81.91 28.306 81.91 28.5999L69.106 28.599ZM78.4897 25.862C78.4952 25.1992 78.3963 24.5397 78.1967 23.9076C77.9958 23.3276 77.7338 22.7707 77.4152 22.2461C77.0547 21.7557 76.5866 21.3544 76.0467 21.0733C75.4371 20.7848 74.7659 20.6505 74.0923 20.682C73.457 20.6499 72.8224 20.7555 72.2318 20.9917C71.6413 21.2279 71.1089 21.5891 70.6711 22.0505C69.8057 23.1425 69.2943 24.4725 69.2053 25.863L78.4897 25.862ZM86.1137 18.239C86.4066 18.239 86.6023 18.1417 86.8952 18.1417H88.4584C88.7514 18.1417 88.947 18.239 89.24 18.239C89.3663 18.7175 89.432 19.21 89.4356 19.7048C89.5148 20.2219 89.5474 20.7451 89.533 21.268C90.0314 20.3945 90.7362 19.6563 91.5857 19.1179C92.5485 18.5083 93.6722 18.2018 94.8112 18.2381H95.3981C95.5674 18.213 95.74 18.2474 95.8867 18.3354C95.8867 18.5226 95.9841 18.824 95.9841 19.0187V19.8003C96 20.0969 95.9671 20.3942 95.8867 20.6802C95.8867 20.9731 95.7894 21.2671 95.7894 21.56C95.6022 21.56 95.3981 21.4627 95.2025 21.4627H94.7139C94.0829 21.4567 93.4553 21.5557 92.8568 21.7557C92.2341 21.9467 91.6649 22.2814 91.1954 22.7329C90.6515 23.2794 90.2489 23.9502 90.0225 24.6873C89.7165 25.7005 89.5843 26.7582 89.6313 27.8155V37.2104C89.3383 37.2104 89.0444 37.3078 88.7514 37.3078H86.9917C86.6987 37.3078 86.3084 37.2104 86.0145 37.2104V18.2484L86.1137 18.239ZM64.7067 7.10588H61.0992L63.6406 4.56457C63.4534 4.27159 63.2493 4.07596 63.0537 3.78298C62.7727 3.57967 62.5111 3.35094 62.2721 3.09968L59.7233 5.63819V2.10937C59.4042 2.0287 59.0748 1.99589 58.7461 2.01202C58.4172 1.99099 58.0871 2.02388 57.7689 2.10937V5.72618L55.1293 3.08658C54.826 3.26064 54.5603 3.49322 54.3477 3.77082C54.1605 4.06379 53.8591 4.25942 53.6644 4.5524L56.2057 7.09372H52.675L52.5777 8.07093C52.5556 8.4029 52.5885 8.73624 52.675 9.0575H56.2918L53.6522 11.6971C54.0388 12.2774 54.5368 12.7773 55.118 13.1629L57.6593 10.6216V14.2384C57.9785 14.3191 58.3078 14.3519 58.6366 14.3358C58.9654 14.3568 59.2955 14.3239 59.6138 14.2384V10.6216L62.1551 13.1629C62.4584 12.9889 62.724 12.7563 62.9367 12.4787C63.1887 12.2404 63.4175 11.9787 63.62 11.6971L61.0992 9.15766H64.7161C64.7967 8.83854 64.8295 8.50921 64.8134 8.18045C64.834 7.8188 64.8012 7.4561 64.7161 7.10401L64.7067 7.10588ZM60.21 8.0831C60.2009 8.51363 60.1348 8.94105 60.0135 9.35423C59.611 9.51335 59.1757 9.57887 58.7423 9.54143C58.3118 9.53232 57.8844 9.46622 57.4712 9.34486C57.3121 8.94237 57.2466 8.50712 57.284 8.07374C57.2931 7.64321 57.3592 7.21578 57.4806 6.80261C57.8831 6.64349 58.3183 6.57796 58.7517 6.61541C59.1822 6.62452 59.6096 6.69062 60.0228 6.81197C60.1356 7.22698 60.2012 7.65338 60.2184 8.0831H60.21Z" fill="#FF4A00"/>
</g>
<defs>
<clipPath id="clip0_382_14246">
<rect width="96" height="48" fill="white"/>
</clipPath>
</defs>
</svg>
