<svg width="204" height="48" viewBox="0 0 204 48" fill="none" xmlns="http://www.w3.org/2000/svg">
<path fill-rule="evenodd" clip-rule="evenodd" d="M163.129 15.2459C163.872 16.5296 164.116 17.99 164.196 19.6319L164.302 21.8203V37.1229L164.409 39.3136C164.625 42.8913 167.263 45.5366 170.866 45.7617L173.045 45.8696V21.8203L173.153 19.6319C173.242 18.0084 173.483 16.5204 174.238 15.2276C175.008 13.9015 176.113 12.8014 177.442 12.0375C178.77 11.2736 180.277 10.873 181.81 10.8758C183.342 10.8786 184.847 11.2847 186.173 12.0534C187.5 12.8221 188.6 13.9263 189.365 15.2551C190.109 16.5388 190.341 18.0268 190.43 19.6319L190.538 21.8134V37.1229L190.646 39.3136C190.871 42.9096 193.488 45.555 197.103 45.7617L199.281 45.8696V19.6319C199.281 14.9924 197.439 10.5427 194.161 7.26145C190.882 3.98015 186.435 2.13582 181.797 2.13399C179.315 2.13137 176.861 2.65871 174.598 3.68078C172.336 4.70284 170.318 6.1961 168.679 8.06078C167.039 6.19683 165.021 4.70394 162.759 3.68157C160.497 2.6592 158.043 2.13084 155.561 2.1317C151.929 2.1317 148.56 3.23393 145.769 5.13757C144.065 3.23622 140.255 2.1317 138.067 2.1317V45.8696L140.255 45.7617C143.914 45.5206 146.558 42.9464 146.7 39.3136L146.818 37.1229V21.8203L146.925 19.6319C147.017 17.9809 147.247 16.5296 147.993 15.2368C148.763 13.9115 149.867 12.8116 151.195 12.0468C152.523 11.282 154.028 10.8791 155.561 10.8784C157.094 10.8787 158.601 11.2824 159.929 12.049C161.257 12.8156 162.361 13.9181 163.129 15.2459ZM13.4619 45.764L15.6494 45.8696H48.4392L48.3313 43.6881C48.0352 40.0921 45.4896 37.4651 41.8835 37.2309L39.696 37.1229H20.0245L46.2516 10.8761L46.1438 8.69686C45.9739 5.06409 43.3204 2.4394 39.696 2.23962L37.5085 2.14088L4.71875 2.1317L4.82663 4.32008C5.11356 7.88167 7.69588 10.5638 11.2721 10.7704L13.4619 10.8784H33.1335L6.90626 37.1252L7.01415 39.3136C7.22991 42.9188 9.8306 45.5297 13.4619 45.7617V45.764ZM129.485 8.53382C131.515 10.5645 133.126 12.9754 134.225 15.6288C135.323 18.2823 135.889 21.1262 135.889 23.9984C135.889 26.8705 135.323 29.7144 134.225 32.3679C133.126 35.0213 131.515 37.4322 129.485 39.4629C125.383 43.5631 119.822 45.8663 114.023 45.8663C108.225 45.8663 102.663 43.5631 98.5614 39.4629C90.0248 30.9229 90.0248 17.0738 98.5614 8.53382C100.59 6.50382 102.998 4.89341 105.649 3.79454C108.299 2.69566 111.14 2.12985 114.009 2.1294C116.883 2.1274 119.729 2.69222 122.385 3.79155C125.04 4.89087 127.453 6.50314 129.485 8.53612V8.53382ZM123.299 14.727C125.758 17.1887 127.139 20.5263 127.139 24.0064C127.139 27.4864 125.758 30.8241 123.299 33.2858C120.838 35.7456 117.502 37.1274 114.023 37.1274C110.545 37.1274 107.208 35.7456 104.748 33.2858C102.289 30.8241 100.907 27.4864 100.907 24.0064C100.907 20.5263 102.289 17.1887 104.748 14.727C107.208 12.2671 110.545 10.8854 114.023 10.8854C117.502 10.8854 120.838 12.2671 123.299 14.727ZM68.1291 2.1294C70.9984 2.13015 73.8395 2.69633 76.4901 3.7956C79.1407 4.89487 81.5488 6.50571 83.5771 8.53612C92.1159 17.0738 92.1159 30.9252 83.5771 39.4629C79.4752 43.5631 73.9139 45.8663 68.1153 45.8663C62.3167 45.8663 56.7554 43.5631 52.6535 39.4629C44.1169 30.9229 44.1169 17.0738 52.6535 8.53382C54.6819 6.50382 57.0902 4.89341 59.7408 3.79454C62.3914 2.69566 65.2323 2.12985 68.1015 2.1294H68.1291ZM77.391 14.7224C79.8505 17.1842 81.2322 20.5223 81.2322 24.0029C81.2322 27.4836 79.8505 30.8217 77.391 33.2835C74.9303 35.7433 71.5939 37.1251 68.1153 37.1251C64.6366 37.1251 61.3003 35.7433 58.8396 33.2835C56.3807 30.8218 54.9995 27.4841 54.9995 24.0041C54.9995 20.524 56.3807 17.1864 58.8396 14.7247C61.3003 12.2648 64.6366 10.8831 68.1153 10.8831C71.5939 10.8831 74.9303 12.2626 77.391 14.7224Z" fill="#2D8CFF"/>
</svg>
